<svg xmlns="http://www.w3.org/2000/svg" viewBox="0 0 180 48">
  <defs></defs>
  <title>button-submit</title>
  <g id="segement-inner">
    <polygon class="cls-1 background" points="32.61 41.5 22.5 24 32.61 6.5 147.39 6.5 157.5 24 147.39 41.5 32.61 41.5"/>
    <path class="cls-2 stroke" d="M147.1,7l9.82,17L147.1,41H32.9L23.08,24,32.9,7H147.1m.58-1H32.32L21.93,24,32.32,42H147.68l10.39-18L147.68,6Z"/>
  </g>
  <path id="segment-6" class="cls-3" d="M157.07,37.73,151.14,48H139.29V44h9.55l4.77-8.27Z" transform="translate(0 0)"/>
  <path id="segment-5" class="cls-4" d="M159.07,13.73,165,24l-5.93,10.27-3.46-2L160.38,24l-4.77-8.27Z" transform="translate(0 0)"/>
  <path id="segment-4" class="cls-3" d="M139.29,0h11.86l5.93,10.27-3.46,2L148.83,4h-9.55Z"transform="translate(0 0)"/>
  <path id="segment-3" class="cls-3" d="M40.71,48H28.86L22.93,37.73l3.46-2L31.17,44h9.55Z" transform="translate(0 0)"/>
  <path id="segment-2" class="cls-4" d="M20.93,34.27,15,24l5.93-10.27,3.46,2L19.62,24l4.77,8.27Z" transform="translate(0 0)"/>
  <path id="segment-1" class="cls-3" d="M22.93,10.27,28.86,0H40.71V4H31.17l-4.77,8.27Z" transform="translate(0 0)"/>
  <g id="typo">
    <path d="M45.14,27.27V25.41h.77v1.32a7.86,7.86,0,0,0,2,.28c1.44,0,2.25-.55,2.25-1.53,0-2.39-4.87-1.41-4.87-4.41,0-1.34,1-2.23,2.9-2.23a9.12,9.12,0,0,1,2.49.39v1.85h-.78V19.76a7.09,7.09,0,0,0-1.67-.21c-1.5,0-2.13.63-2.13,1.46,0,2.27,4.89,1.36,4.89,4.44,0,1.53-1.22,2.25-3,2.25A10.42,10.42,0,0,1,45.14,27.27Z"/>
    <path d="M52.47,26.84h1.36V19.71H52.47V19h6.79v2.3h-.78v-1.6H54.67v3.18h3.85v.7H54.67v3.25h3.84v-1.6h.78v2.3H52.47Z"/>
    <path d="M60.86,26.84h1.36V19.71H60.86V19h2.23l5.14,7.17V19.71H66.87V19h3.5v.7H69v7.83h-.76L63,20.24v6.6h1.36v.7H60.86Z"/>
    <path d="M71.58,26.84h1.36V19.71H71.58V19h3.84c2.48,0,4.48,1.4,4.48,4.27s-2,4.26-4.48,4.26H71.58Zm3.85,0A3.32,3.32,0,0,0,79,23.28a3.33,3.33,0,0,0-3.6-3.57H73.78v7.13Z"/>
    <path d="M84.87,27.25V25.12h1.46v1.12a6.45,6.45,0,0,0,1.47.18c.91,0,1.76-.22,1.76-1.06,0-1.95-4.58-.9-4.58-4,0-1.79,1.51-2.48,3.19-2.48a9.08,9.08,0,0,1,2.72.46v2.09H89.41V20.24a8.21,8.21,0,0,0-1.19-.11c-.83,0-1.67.24-1.67,1,0,1.82,4.58.84,4.58,4.09,0,1.86-1.53,2.46-3.24,2.46A12.28,12.28,0,0,1,84.87,27.25Z"/>
    <path d="M92.58,26.25h1.15v-6H92.58V19H96.5V20.3H95.36v6H96.5v1.29H92.58Z"/>
    <path d="M97.76,23.32c0-2.7,1.68-4.48,4.65-4.48a7.75,7.75,0,0,1,3.36.76v2.2h-1.53V20.48a6.22,6.22,0,0,0-1.79-.29,2.82,2.82,0,0,0-3.05,3.11,2.79,2.79,0,0,0,3.08,3,5.71,5.71,0,0,0,1.76-.31V24.22h-1.78V23h4v1.26h-.7v2.66a7,7,0,0,1-3.36.83C99.61,27.71,97.76,26.15,97.76,23.32Z"/>
    <path d="M107.7,26.25h1.15v-6H107.7V19h2.82l4.09,5.9V20.3h-1.15V19h3.84V20.3h-1.15v7.24h-1.44l-4.31-6.16v4.87h1.15v1.29H107.7Z"/>
    <path d="M117.78,26.25h1l2.41-6H120V19h3.49l2.93,7.24h1v1.29h-3.82V26.25h1.12l-.45-1.16h-3.5l-.45,1.16h1.12v1.29h-3.71Zm6.05-2.45-1.26-3.22-1.25,3.22Z"/>
    <path d="M128.27,26.25h1.15v-6h-1.15V19h4.13V20.3H131v6h2.76V24.88h1.5v2.66h-7Z"/>
  </g>
</svg>
