<svg xmlns="http://www.w3.org/2000/svg" viewBox="0 0 48 55.43">
  <defs></defs>
  <title>icon-twitter</title>
  <g class="outer-segment">
    <path id="segment-twitter-6" class="cls-1" d="M16.27,10.22l2,3.46L10,18.45V28H6V16.14Z" transform="translate(-6 -2.29)"/>
    <path id="segment-twitter-5" class="cls-1" d="M10,41.55l8.27,4.77-2,3.46L6,43.86V32h4Z" transform="translate(-6 -2.29)"/>
    <path id="segment-twitter-4" class="cls-1" d="M38.27,48.32l2,3.46L30,57.71,19.73,51.78l2-3.46L30,53.09Z" transform="translate(-6 -2.29)"/>
    <path id="segment-twitter-3" class="cls-1" d="M50,32h4V43.86L43.73,49.78l-2-3.46L50,41.55Z" transform="translate(-6 -2.29)"/>
    <path id="segment-twitter-2" class="cls-1" d="M54,16.14V28H50V18.45l-8.27-4.77,2-3.46Z" transform="translate(-6 -2.29)"/>
    <path id="segment-twitter-1" class="cls-1" d="M30,2.29,40.27,8.22l-2,3.46L30,6.91l-8.27,4.77-2-3.46Z" transform="translate(-6 -2.29)"/>
  </g>
  <path class="cls-1 inner-segment" d="M30,11.52l16,9.24V39.24L30,48.48,14,39.24V20.76l16-9.24m0-1.15L13,20.19V39.81l17,9.81,17-9.81V20.19L30,10.37Z" transform="translate(-6 -2.29)"/>
  <path id="twitter-symbol" class="cls-1" d="M35.59,26.84c0,.13,0,.25,0,.38A8.21,8.21,0,0,1,23,34.13a6.06,6.06,0,0,0,.7,0,5.77,5.77,0,0,0,3.58-1.23,2.89,2.89,0,0,1-2.7-2,3.56,3.56,0,0,0,.54,0,3,3,0,0,0,.76-.1A2.88,2.88,0,0,1,23.54,28v0a2.89,2.89,0,0,0,1.3.37,2.89,2.89,0,0,1-.89-3.86,8.19,8.19,0,0,0,5.95,3,3.24,3.24,0,0,1-.07-.66,2.89,2.89,0,0,1,5-2,5.66,5.66,0,0,0,1.83-.7,2.87,2.87,0,0,1-1.27,1.59A5.77,5.77,0,0,0,37,25.35,6.21,6.21,0,0,1,35.59,26.84Z" transform="translate(-6 -2.29)"/>
</svg>
