<svg id="Isolationsmodus" xmlns="http://www.w3.org/2000/svg" viewBox="0 0 48 55.43"><defs><style>.cls-1{fill:#555;}</style></defs><title>icon-twitter</title><path class="cls-1" d="M30,11.52l16,9.24V39.24L30,48.48,14,39.24V20.76l16-9.24m0-1.15L13,20.19V39.81l17,9.81,17-9.81V20.19L30,10.37Z" transform="translate(-6 -2.29)"/><polygon class="cls-1" points="35.73 11.39 44 16.17 44 25.71 48 25.71 48 13.86 37.73 7.93 35.73 11.39"/><polygon class="cls-1" points="4 25.71 4 16.17 12.27 11.39 10.27 7.93 0 13.86 0 25.71 4 25.71"/><polygon class="cls-1" points="15.73 9.39 24 4.62 32.27 9.39 34.27 5.93 24 0 13.73 5.93 15.73 9.39"/><polygon class="cls-1" points="12.27 44.03 4 39.26 4 29.71 0 29.71 0 41.57 10.27 47.5 12.27 44.03"/><polygon class="cls-1" points="32.27 46.03 24 50.81 15.73 46.03 13.73 49.5 24 55.43 34.27 49.5 32.27 46.03"/><polygon class="cls-1" points="44 29.71 44 39.26 35.73 44.03 37.73 47.5 48 41.57 48 29.71 44 29.71"/><path class="cls-1" d="M35.59,26.84c0,.13,0,.25,0,.38A8.21,8.21,0,0,1,23,34.13a6.06,6.06,0,0,0,.7,0,5.77,5.77,0,0,0,3.58-1.23,2.89,2.89,0,0,1-2.7-2,3.56,3.56,0,0,0,.54,0,3,3,0,0,0,.76-.1A2.88,2.88,0,0,1,23.54,28v0a2.89,2.89,0,0,0,1.3.37,2.89,2.89,0,0,1-.89-3.86,8.19,8.19,0,0,0,5.95,3,3.24,3.24,0,0,1-.07-.66,2.89,2.89,0,0,1,5-2,5.66,5.66,0,0,0,1.83-.7,2.87,2.87,0,0,1-1.27,1.59A5.77,5.77,0,0,0,37,25.35,6.21,6.21,0,0,1,35.59,26.84Z" transform="translate(-6 -2.29)"/></svg>