<svg id="Isolationsmodus" xmlns="http://www.w3.org/2000/svg" viewBox="0 0 48 55.43"><defs><style>.cls-1{fill:#555;}</style></defs><title>icon-instagram</title><path class="cls-1" d="M30,11.52l16,9.24V39.24L30,48.48,14,39.24V20.76l16-9.24m0-1.15L13,20.19V39.81l17,9.81,17-9.81V20.19L30,10.37Z" transform="translate(-6 -2.29)"/><polygon class="cls-1" points="35.73 11.39 44 16.17 44 25.71 48 25.71 48 13.86 37.73 7.93 35.73 11.39"/><polygon class="cls-1" points="4 25.71 4 16.17 12.27 11.39 10.27 7.93 0 13.86 0 25.71 4 25.71"/><polygon class="cls-1" points="15.73 9.39 24 4.62 32.27 9.39 34.27 5.93 24 0 13.73 5.93 15.73 9.39"/><polygon class="cls-1" points="12.27 44.03 4 39.26 4 29.71 0 29.71 0 41.57 10.27 47.5 12.27 44.03"/><polygon class="cls-1" points="32.27 46.03 24 50.81 15.73 46.03 13.73 49.5 24 55.43 34.27 49.5 32.27 46.03"/><polygon class="cls-1" points="44 29.71 44 39.26 35.73 44.03 37.73 47.5 48 41.57 48 29.71 44 29.71"/><path class="cls-1" d="M36.81,32.54a3.79,3.79,0,0,1-4,4c-.95.05-1.88,0-2.83,0s-1.88,0-2.83,0a3.79,3.79,0,0,1-4-4c-.05-.95,0-1.88,0-2.83s0-1.88,0-2.83a3.79,3.79,0,0,1,4-4c.95-.05,1.88,0,2.83,0s1.88,0,2.83,0a3.79,3.79,0,0,1,4,4c.05.95,0,1.88,0,2.83S36.86,31.59,36.81,32.54ZM26,24.36a2.34,2.34,0,0,0-1.3,1.3,15.14,15.14,0,0,0-.28,4,15.14,15.14,0,0,0,.28,4,2.34,2.34,0,0,0,1.3,1.3,15.14,15.14,0,0,0,4,.28,15.14,15.14,0,0,0,4-.28,2.34,2.34,0,0,0,1.3-1.3,15.14,15.14,0,0,0,.28-4,15.14,15.14,0,0,0-.28-4,2.34,2.34,0,0,0-1.3-1.3,15.14,15.14,0,0,0-4-.28A15.14,15.14,0,0,0,26,24.36Zm4,8.86a3.52,3.52,0,1,1,3.52-3.52A3.51,3.51,0,0,1,30,33.22Zm0-5.8a2.29,2.29,0,1,0,2.29,2.29A2.29,2.29,0,0,0,30,27.42Zm3.66-.55a.82.82,0,1,1,.82-.82A.82.82,0,0,1,33.66,26.87Z" transform="translate(-6 -2.29)"/></svg>