<svg id="Isolationsmodus" xmlns="http://www.w3.org/2000/svg" viewBox="0 0 48 55.43"><defs><style>.cls-1{fill:#555;}.cls-2{fill:#fcc911;}</style></defs><title>icon-behance</title><path class="cls-1" d="M30,11.52l16,9.24V39.24L30,48.48,14,39.24V20.76l16-9.24m0-1.15L13,20.19V39.81l17,9.81,17-9.81V20.19L30,10.37Z" transform="translate(-6 -2.29)"/><polygon class="cls-1" points="35.73 11.39 44 16.17 44 25.71 48 25.71 48 13.86 37.73 7.93 35.73 11.39"/><polygon class="cls-1" points="4 25.71 4 16.17 12.27 11.39 10.27 7.93 0 13.86 0 25.71 4 25.71"/><polygon class="cls-2" points="15.73 9.39 24 4.62 32.27 9.39 34.27 5.93 24 0 13.73 5.93 15.73 9.39"/><polygon class="cls-1" points="12.27 44.03 4 39.26 4 29.71 0 29.71 0 41.57 10.27 47.5 12.27 44.03"/><polygon class="cls-2" points="32.27 46.03 24 50.81 15.73 46.03 13.73 49.5 24 55.43 34.27 49.5 32.27 46.03"/><polygon class="cls-1" points="44 29.71 44 39.26 35.73 44.03 37.73 47.5 48 41.57 48 29.71 44 29.71"/><path class="cls-2" d="M26.16,24c1.93,0,3.6.54,3.6,2.79a2.41,2.41,0,0,1-1.54,2.35A2.71,2.71,0,0,1,30.27,32c0,2.29-1.92,3.27-4,3.27H20.86V24Zm-.32,4.54c.88,0,1.51-.38,1.51-1.34s-.8-1.29-1.7-1.29H23.33v2.62ZM26,33.31c1,0,1.83-.36,1.83-1.49s-.69-1.61-1.78-1.61h-2.7v3.1Zm11-.62h2a3.63,3.63,0,0,1-3.81,2.74A4,4,0,0,1,31,31.16a4.09,4.09,0,0,1,4.17-4.31c2.55,0,4,2,4,4.42,0,.14,0,.29,0,.42H33.25a2,2,0,0,0,3.77,1Zm-4.22-8v1.11h4.56V24.74Zm.46,5.54h3.64a1.67,1.67,0,0,0-1.79-1.74A1.75,1.75,0,0,0,33.25,30.28Z" transform="translate(-6 -2.29)"/></svg>