<svg xmlns="http://www.w3.org/2000/svg" viewBox="0 0 48 55.43">
  <defs></defs>
  <title>icon-dribbble</title>
  <g class="outer-segments">
    <polygon id="segment-dribbble-6" class="cls-1" points="0 13.86 0 25.71 4 25.71 4 16.17 12.27 11.39 10.27 7.93 0 13.86"/>
    <polygon id="segment-dribbble-5" class="cls-1" points="4 29.71 0 29.71 0 41.57 10.27 47.5 12.27 44.03 4 39.26 4 29.71"/>
    <polygon id="segment-dribbble-4" class="cls-1" points="24 50.81 15.73 46.03 13.73 49.5 24 55.43 34.27 49.5 32.27 46.03 24 50.81"/>
    <polygon id="segment-dribbble-3" class="cls-1" points="44 39.26 35.73 44.03 37.73 47.5 48 41.57 48 29.71 44 29.71 44 39.26"/>
    <polygon id="segment-dribbble-2" class="cls-1" points="37.73 7.93 35.73 11.39 44 16.17 44 25.71 48 25.71 48 13.86 37.73 7.93"/>
    <polygon id="segment-dribbble-1" class="cls-1" points="13.73 5.93 15.73 9.39 24 4.62 32.27 9.39 34.27 5.93 24 0 13.73 5.93"/>
  </g>
  <path id="" class="cls-1 inner-segments" d="M30,11.52l16,9.24V39.24L30,48.48,14,39.24V20.76l16-9.24m0-1.15L13,20.19V39.81l17,9.81,17-9.81V20.19L30,10.37Z" transform="translate(-6 -2.29)"/>
  <path id="dribbble-symbol" class="cls-1" d="M30,36.56a6.86,6.86,0,1,1,6.86-6.86A6.86,6.86,0,0,1,30,36.56Zm.16-7.87a21.52,21.52,0,0,1-6,.83,1.27,1.27,0,0,0,0,.19,5.85,5.85,0,0,0,1.5,3.91,9.27,9.27,0,0,1,4.76-3.87l.23-.07C30.49,29.35,30.33,29,30.16,28.69ZM27.5,24.41a5.87,5.87,0,0,0-3.23,4.09,22.18,22.18,0,0,0,5.41-.71A35.09,35.09,0,0,0,27.5,24.41ZM31,30.65h0s-3.47,1.21-4.6,3.66l-.13-.1a5.87,5.87,0,0,0,6,.88A24.69,24.69,0,0,0,31,30.65ZM28.58,24h0ZM30,23.85a6,6,0,0,0-1.38.17,28.62,28.62,0,0,1,2.2,3.41,6.33,6.33,0,0,0,3.05-2.12A5.81,5.81,0,0,0,30,23.85ZM34.52,26a7.62,7.62,0,0,1-3.27,2.32c.13.28.27.56.39.85,0,.1.08.21.13.3a13.71,13.71,0,0,1,4.08.19A5.87,5.87,0,0,0,34.52,26Zm-2.39,4.39a26.15,26.15,0,0,1,1.14,4.19,5.87,5.87,0,0,0,2.51-3.93A8.67,8.67,0,0,0,32.13,30.38Z" transform="translate(-6 -2.29)"/>
</svg>
