<svg xmlns="http://www.w3.org/2000/svg" viewBox="0 0 177 48"><defs><style>.cls-1{fill:#fdca11;}.cls-2{fill:#1e1e1e;}.cls-3,.cls-4{fill:#fff;}.cls-4{opacity:0.25;}</style></defs><title>logo-main-nav</title><g id="Ebene_2" data-name="Ebene 2"><g id="Ebene_7" data-name="Ebene 7"><rect class="cls-1" width="177" height="48"/><rect class="cls-2" width="72" height="48"/><path class="cls-2" d="M91.11,9.6a5.86,5.86,0,0,1,2.35.48,6.08,6.08,0,0,1,3.22,3.22,5.84,5.84,0,0,1,.48,2.35V22a5.84,5.84,0,0,1-.48,2.35,6.08,6.08,0,0,1-3.22,3.22,5.83,5.83,0,0,1-2.35.48H88.85v9.65a.59.59,0,0,1-.67.67H83.91a.59.59,0,0,1-.67-.67V10.27a.59.59,0,0,1,.67-.67Zm.43,6.29a1.15,1.15,0,0,0-1.15-1.15H88.85v8.21h1.54a1.15,1.15,0,0,0,1.15-1.15Z"/><path class="cls-2" d="M104.69,37.73a.59.59,0,0,1-.67.67H99.75a.59.59,0,0,1-.67-.67V10.27a.59.59,0,0,1,.67-.67H104a.59.59,0,0,1,.67.67Z"/><path class="cls-2" d="M119.57,33.46v4.27a.59.59,0,0,1-.67.67H108.48a.59.59,0,0,1-.67-.67V10.27a.59.59,0,0,1,.67-.67H118.9a.59.59,0,0,1,.67.67v4.27a.59.59,0,0,1-.67.67h-5.47v5.47h4.75a.59.59,0,0,1,.67.67v4.27a.59.59,0,0,1-.67.67h-4.75v6.48h5.47A.59.59,0,0,1,119.57,33.46Z"/><path class="cls-2" d="M135.22,10.27v4.27a.59.59,0,0,1-.67.67h-3.41V37.73a.59.59,0,0,1-.67.67h-4.27a.67.67,0,0,1-.46-.19.62.62,0,0,1-.22-.48V15.22h-3.36a.59.59,0,0,1-.67-.67V10.27a.59.59,0,0,1,.67-.67h12.38A.59.59,0,0,1,135.22,10.27Z"/><path class="cls-2" d="M149.14,33.46v4.27a.59.59,0,0,1-.67.67H138.05a.59.59,0,0,1-.67-.67V10.27a.59.59,0,0,1,.67-.67h10.42a.59.59,0,0,1,.67.67v4.27a.59.59,0,0,1-.67.67H143v5.47h4.75a.59.59,0,0,1,.67.67v4.27a.59.59,0,0,1-.67.67H143v6.48h5.47A.59.59,0,0,1,149.14,33.46Z"/><path class="cls-2" d="M157.63,37.73c0,.45-.24.67-.72.67h-4.27c-.42,0-.62-.22-.62-.67V10.27a.59.59,0,0,1,.67-.67h7.2a5.86,5.86,0,0,1,2.35.48,6.08,6.08,0,0,1,3.22,3.22,5.84,5.84,0,0,1,.48,2.35v5.9a5.21,5.21,0,0,1-1.06,3.19,7.36,7.36,0,0,1-2.54,2.19l4.56,10.8c.1.45-.06.67-.48.67H162a.92.92,0,0,1-.55-.19,1,1,0,0,1-.36-.48l-3.5-8.88Zm0-15.26h1.54a1.15,1.15,0,0,0,1.15-1.15V15.89a1.15,1.15,0,0,0-1.15-1.15h-1.54Z"/><path class="cls-3" d="M23.78,9.43a.59.59,0,0,1,.67.67V32.52A5.84,5.84,0,0,1,24,34.87a6.08,6.08,0,0,1-3.22,3.22,5.85,5.85,0,0,1-2.35.48H16.57a5.84,5.84,0,0,1-2.35-.48A6.09,6.09,0,0,1,11,34.87a5.82,5.82,0,0,1-.48-2.35V27.38a.82.82,0,0,1,.62-.86l4.37-1.15c.42-.13.62,0,.62.48v6.43a1.15,1.15,0,0,0,1.15,1.15h.38a1.15,1.15,0,0,0,1.15-1.15V10.1a.59.59,0,0,1,.67-.67Z"/><path class="cls-3" d="M41.25,37.56q.1.67-.58.67H36.3a.68.68,0,0,1-.72-.67l-.38-4.7h-3l-.38,4.7a.68.68,0,0,1-.72.67H26.75q-.67,0-.58-.67l3.6-27.46a.7.7,0,0,1,.77-.67h6.34a.7.7,0,0,1,.77.67ZM34.81,27.48,33.9,16.87h-.38l-.91,10.61Z"/><path class="cls-3" d="M58.57,10.1V37.56a.59.59,0,0,1-.67.67H54.83a.92.92,0,0,1-.55-.19,1,1,0,0,1-.36-.43L48.83,25.08V37.56a.59.59,0,0,1-.67.67H43.89a.59.59,0,0,1-.67-.67V10.1a.59.59,0,0,1,.67-.67h3.17a.93.93,0,0,1,.55.19,1,1,0,0,1,.36.43l5,14V10.1a.59.59,0,0,1,.67-.67H57.9A.59.59,0,0,1,58.57,10.1Z"/><polygon class="cls-4" points="0 0 0 48 177 48 0 0"/></g></g></svg>