<svg id="Ebene_7" data-name="Ebene 7" xmlns="http://www.w3.org/2000/svg" viewBox="0 0 150 240"><defs><style>.cls-1{fill:#222;}.cls-2,.cls-3{fill:#fff;}.cls-3{opacity:0.25;}</style></defs><title>shield-draw</title><path class="cls-1" d="M325,261V150a20,20,0,0,0-20-20H195a20,20,0,0,0-20,20V261a14,14,0,0,1,0,28h0v31.82L250,370l75-49.21V289h0a14,14,0,0,1,0-28Z" transform="translate(-175 -130)"/><path class="cls-2" d="M319,255.89V150a14,14,0,0,0-14-14H195a14,14,0,0,0-14,14V255.89a20,20,0,0,1,0,38.16v23.5l69,45.27,69-45.27v-23.5a20,20,0,0,1,0-38.16Z" transform="translate(-175 -130)"/><path class="cls-1" d="M315,253.15V150a10,10,0,0,0-10-10H195a10,10,0,0,0-10,10V253.15a24,24,0,0,1,0,43.63v18.61L250,358l65-42.65V296.78a24,24,0,0,1,0-43.63Z" transform="translate(-175 -130)"/><polygon class="cls-2" points="30 157.96 30 158.96 64.57 158.96 75 165.81 85.43 158.96 120 158.96 120 157.96 30 157.96"/><rect class="cls-2" x="30" y="130.97" width="90" height="1"/><path class="cls-2" d="M220.37,279.73v-2.27h1.28v1.39a8.11,8.11,0,0,0,2,.26c1.34,0,2.31-.45,2.31-1.47,0-2.5-5.41-1.33-5.41-4.83,0-1.79,1.42-2.69,3.49-2.69a9.88,9.88,0,0,1,3,.5v2.24h-1.3v-1.41a7.78,7.78,0,0,0-1.63-.19c-1.33,0-2.18.51-2.18,1.42,0,2.34,5.41,1.25,5.41,4.87,0,1.94-1.57,2.71-3.59,2.71A13,13,0,0,1,220.37,279.73Z" transform="translate(-175 -130)"/><path class="cls-2" d="M229.38,278.92h1.44v-7.47h-1.44V270.3h4.29v1.14h-1.44v3.12h5.22v-3.12H236V270.3h4.27v1.14h-1.42v7.47h1.42v1.14H236v-1.14h1.44v-3.17h-5.22v3.17h1.44v1.14h-4.29Z" transform="translate(-175 -130)"/><path class="cls-2" d="M242.3,278.92h1.44v-7.47H242.3V270.3h7.89V273h-1.3v-1.6h-3.75v3.14h4v1.14h-4v3.2h3.78v-1.65h1.31v2.79H242.3Z" transform="translate(-175 -130)"/><path class="cls-2" d="M252.4,278.92h1.44v-7.47H252.4V270.3h7.89V273H259v-1.6h-3.75v3.14h4v1.14h-4v3.2H259v-1.65h1.31v2.79H252.4Z" transform="translate(-175 -130)"/><path class="cls-2" d="M264.32,278.92h1.54v-7.47h-2.37v1.62h-1.28V270.3h8.71v2.75h-1.3v-1.62h-2.35v7.47h1.54v1.14h-4.48Z" transform="translate(-175 -130)"/><path class="cls-2" d="M272.75,279.73v-2.27H274v1.39a8.11,8.11,0,0,0,2,.26c1.34,0,2.31-.45,2.31-1.47,0-2.5-5.41-1.33-5.41-4.83,0-1.79,1.42-2.69,3.49-2.69a9.88,9.88,0,0,1,3,.5v2.24h-1.3v-1.41a7.78,7.78,0,0,0-1.63-.19c-1.33,0-2.18.51-2.18,1.42,0,2.34,5.41,1.25,5.41,4.87,0,1.94-1.57,2.71-3.59,2.71A13,13,0,0,1,272.75,279.73Z" transform="translate(-175 -130)"/><polygon id="shield-star" class="cls-2" points="75.01 196.18 68.82 200.49 70.99 193.3 65 188.76 72.55 188.59 75.01 181.46 77.46 188.59 85 188.76 79.01 193.3 81.2 200.49 75.01 196.18"/><rect class="cls-2" x="29.97" y="79.48" width="90" height="41.24"/><path class="cls-1" d="M223.51,216.52a5.82,5.82,0,0,1,3.08,3.08,5.59,5.59,0,0,1,.46,2.25v1.75a.79.79,0,0,1-.6.83l-4.19,1.1q-.6.18-.6-.46v-3a1.1,1.1,0,0,0-1.1-1.1h-.37a1.1,1.1,0,0,0-1.1,1.1v2.81a3.33,3.33,0,0,0,.18.87,2.11,2.11,0,0,0,.51.74l6,4.51a3,3,0,0,1,.94,1.31,8.09,8.09,0,0,1,.3,1.5v4.69a5.59,5.59,0,0,1-.46,2.25,5.82,5.82,0,0,1-3.08,3.08,5.6,5.6,0,0,1-2.25.46h-1.75a5.59,5.59,0,0,1-2.25-.46,5.82,5.82,0,0,1-3.08-3.08,5.59,5.59,0,0,1-.46-2.25v-2.58a.79.79,0,0,1,.6-.83l4.19-1.1c.4-.12.6,0,.6.46v3.82a1.1,1.1,0,0,0,1.1,1.1h.37a1.1,1.1,0,0,0,1.1-1.1v-2.85a5,5,0,0,0-.18-1.06,1.8,1.8,0,0,0-.55-.83L215,229a4.26,4.26,0,0,1-1-1.29,4.06,4.06,0,0,1-.3-1.7v-4.14a5.59,5.59,0,0,1,.46-2.25,5.82,5.82,0,0,1,3.08-3.08,5.59,5.59,0,0,1,2.25-.46h1.75A5.6,5.6,0,0,1,223.51,216.52Z" transform="translate(-175 -130)"/><path class="cls-1" d="M243.16,217v26.31a.57.57,0,0,1-.64.64h-4.09a.57.57,0,0,1-.64-.64v-10.4h-3v10.4a.57.57,0,0,1-.64.64H230a.57.57,0,0,1-.64-.64V217a.57.57,0,0,1,.64-.64h4.09a.57.57,0,0,1,.64.64v10.53h3V217a.57.57,0,0,1,.64-.64h4.09A.57.57,0,0,1,243.16,217Z" transform="translate(-175 -130)"/><path class="cls-1" d="M251.53,243.33a.57.57,0,0,1-.64.64h-4.09a.57.57,0,0,1-.64-.64V217a.57.57,0,0,1,.64-.64h4.09a.57.57,0,0,1,.64.64Z" transform="translate(-175 -130)"/><path class="cls-1" d="M269.24,217v26.31a.57.57,0,0,1-.64.64h-2.94a.89.89,0,0,1-.53-.18,1,1,0,0,1-.34-.41l-4.88-12v12a.57.57,0,0,1-.64.64h-4.09a.57.57,0,0,1-.64-.64V217a.57.57,0,0,1,.64-.64h3a.89.89,0,0,1,.53.18,1,1,0,0,1,.35.41l4.78,13.39V217a.57.57,0,0,1,.64-.64h4.09A.57.57,0,0,1,269.24,217Z" transform="translate(-175 -130)"/><path class="cls-1" d="M286.62,216.59a.45.45,0,0,1,0,.44l-5.29,16.28v10a.57.57,0,0,1-.64.64H276.6a.57.57,0,0,1-.64-.64v-10L270.66,217a.45.45,0,0,1,0-.44.47.47,0,0,1,.41-.21H276a.67.67,0,0,1,.74.64l1.84,8.83h.18L280.6,217a.67.67,0,0,1,.74-.64h4.88A.46.46,0,0,1,286.62,216.59Z" transform="translate(-175 -130)"/><path class="cls-2" d="M222.91,168.57a5.61,5.61,0,0,1,2.25.46,5.83,5.83,0,0,1,3.08,3.08,5.6,5.6,0,0,1,.46,2.25V195a5.6,5.6,0,0,1-.46,2.25,5.83,5.83,0,0,1-3.08,3.08,5.6,5.6,0,0,1-2.25.46H216a.57.57,0,0,1-.64-.64V169.21a.57.57,0,0,1,.64-.64Zm.41,6a1.1,1.1,0,0,0-1.1-1.1h-1.47v22.36h1.47a1.1,1.1,0,0,0,1.1-1.1Z" transform="translate(-175 -130)"/><path class="cls-2" d="M245.49,200.12q.14.64-.46.64h-4.19a.89.89,0,0,1-.53-.18.92.92,0,0,1-.34-.46l-3.36-11.27v11.91l0-.46a.54.54,0,0,1-.6.46h-4.09a.57.57,0,0,1-.64-.64V169.21a.57.57,0,0,1,.64-.64h6.9A5.61,5.61,0,0,1,241,169a5.83,5.83,0,0,1,3.08,3.08,5.6,5.6,0,0,1,.46,2.25v7.5a5.53,5.53,0,0,1-.87,3.06,5.93,5.93,0,0,1-2.3,2.09Zm-8.88-17.39h1.47a1.1,1.1,0,0,0,1.1-1.1v-7a1.1,1.1,0,0,0-1.1-1.1h-1.47Z" transform="translate(-175 -130)"/><path class="cls-2" d="M260.72,200.12q.09.64-.55.64H256a.65.65,0,0,1-.69-.64l-.37-5h-2.85l-.37,5a.65.65,0,0,1-.69.64h-4.19q-.64,0-.55-.64l3.45-30.91a.67.67,0,0,1,.74-.64h6.07a.67.67,0,0,1,.74.64ZM254.55,190l-.87-12.47h-.37L252.44,190Z" transform="translate(-175 -130)"/><path class="cls-2" d="M286.2,169.21l-5.43,30.91a.67.67,0,0,1-.74.64h-4a.67.67,0,0,1-.74-.64l-1.61-11.45h0L272,200.12a.67.67,0,0,1-.74.64h-4a.67.67,0,0,1-.74-.64L261,169.21q-.09-.64.55-.64h5a.65.65,0,0,1,.69.64L269.32,188h.18l1.56-18.77a.65.65,0,0,1,.69-.64h3.73a.65.65,0,0,1,.69.64L277.74,188h.18L280,169.21a.65.65,0,0,1,.69-.64h5Q286.29,168.57,286.2,169.21Z" transform="translate(-175 -130)"/><rect class="cls-2" x="10" y="50.24" width="11.68" height="8"/><rect class="cls-2" x="128.32" y="50.24" width="11.68" height="8"/><path class="cls-3" d="M195,130a20,20,0,0,0-20,20V261a14,14,0,0,1,0,28h0v31.82L250,370V130Z" transform="translate(-175 -130)"/></svg>