<svg id="Ebene_7" data-name="Ebene 7" xmlns="http://www.w3.org/2000/svg" viewBox="0 0 150 240"><defs><style>.cls-1{fill:#222;}.cls-2,.cls-3{fill:#fff;}.cls-3{opacity:0.25;}</style></defs><title>shield-design</title><path class="cls-1" d="M325,261V150a20,20,0,0,0-20-20H195a20,20,0,0,0-20,20V261a14,14,0,0,1,0,28h0v31.82L250,370l75-49.21V289h0a14,14,0,0,1,0-28Z" transform="translate(-175 -130)"/><path class="cls-2" d="M319,255.89V150a14,14,0,0,0-14-14H195a14,14,0,0,0-14,14V255.89a20,20,0,0,1,0,38.16v23.5l69,45.27,69-45.27v-23.5a20,20,0,0,1,0-38.16Z" transform="translate(-175 -130)"/><path class="cls-1" d="M315,253.15V150a10,10,0,0,0-10-10H195a10,10,0,0,0-10,10V253.15a24,24,0,0,1,0,43.63v18.61L250,358l65-42.65V296.78a24,24,0,0,1,0-43.63Z" transform="translate(-175 -130)"/><polygon class="cls-2" points="30 157.96 30 158.96 64.57 158.96 75 165.81 85.43 158.96 120 158.96 120 157.96 30 157.96"/><rect class="cls-2" x="30" y="130.97" width="90" height="1"/><path class="cls-2" d="M214.66,279.73v-2.27h1.28v1.39a8.11,8.11,0,0,0,2,.26c1.34,0,2.31-.45,2.31-1.47,0-2.5-5.41-1.33-5.41-4.83,0-1.79,1.42-2.69,3.49-2.69a9.88,9.88,0,0,1,3,.5v2.24H220v-1.41a7.77,7.77,0,0,0-1.63-.19c-1.33,0-2.18.51-2.18,1.42,0,2.34,5.41,1.25,5.41,4.87,0,1.94-1.57,2.71-3.59,2.71A13,13,0,0,1,214.66,279.73Z" transform="translate(-175 -130)"/><path class="cls-2" d="M223.68,275.22a4.81,4.81,0,0,1,5.19-5.11,8.71,8.71,0,0,1,3.49.75v2.56H231v-1.79a6.71,6.71,0,0,0-2.07-.34,3.56,3.56,0,0,0-3.79,3.86A3.61,3.61,0,0,0,229,279a7,7,0,0,0,3.36-1v1.34a7.53,7.53,0,0,1-3.47.85C225.81,280.25,223.68,278.39,223.68,275.22Z" transform="translate(-175 -130)"/><path class="cls-2" d="M234.37,278.92h1.44v-7.47h-1.44V270.3h4.56c2.34,0,3.89,1.15,3.89,3a2.69,2.69,0,0,1-2.14,2.67l1.65,3h1.34v1.14h-2.3l-2.07-3.73h-2.08v2.59h1.42v1.14h-4.27Zm4.59-3.7c1.73,0,2.43-.8,2.43-1.89s-.72-1.89-2.43-1.89h-1.75v3.78Z" transform="translate(-175 -130)"/><path class="cls-2" d="M245.39,278.92h1.44v-7.47h-1.44V270.3h7.89V273H252v-1.6h-3.75v3.14h4v1.14h-4v3.2H252v-1.65h1.31v2.79h-7.94Z" transform="translate(-175 -130)"/><path class="cls-2" d="M255.49,278.92h1.44v-7.47h-1.44V270.3h7.89V273h-1.3v-1.6h-3.75v3.14h4v1.14h-4v3.2h3.78v-1.65h1.31v2.79h-7.94Z" transform="translate(-175 -130)"/><path class="cls-2" d="M265.58,278.92H267v-7.47h-1.44V270.3h2.88l5.27,7.48v-6.34h-1.42V270.3h4.19v1.14h-1.42v8.61h-1.26l-5.46-7.7v6.56h1.42v1.14h-4.19Z" transform="translate(-175 -130)"/><path class="cls-2" d="M278.46,279.73v-2.27h1.28v1.39a8.11,8.11,0,0,0,2,.26c1.34,0,2.31-.45,2.31-1.47,0-2.5-5.41-1.33-5.41-4.83,0-1.79,1.42-2.69,3.49-2.69a9.88,9.88,0,0,1,3,.5v2.24h-1.3v-1.41a7.78,7.78,0,0,0-1.63-.19c-1.33,0-2.18.51-2.18,1.42,0,2.34,5.41,1.25,5.41,4.87,0,1.94-1.57,2.71-3.59,2.71A13,13,0,0,1,278.46,279.73Z" transform="translate(-175 -130)"/><polygon id="shield-star" class="cls-2" points="75.01 196.18 68.82 200.49 70.99 193.3 65 188.76 72.55 188.59 75.01 181.46 77.46 188.59 85 188.76 79.01 193.3 81.2 200.49 75.01 196.18"/><rect class="cls-2" x="29.97" y="79.48" width="90" height="41.24"/><path class="cls-1" d="M224.32,217v4.09a.57.57,0,0,1-.64.64h-5.24V227H223a.57.57,0,0,1,.64.64v4.09a.57.57,0,0,1-.64.64h-4.55v10.95a.57.57,0,0,1-.64.64h-4.09a.57.57,0,0,1-.64-.64V217a.57.57,0,0,1,.64-.64h10A.57.57,0,0,1,224.32,217Z" transform="translate(-175 -130)"/><path class="cls-1" d="M238.81,243.33q.09.64-.55.64h-4.19a.65.65,0,0,1-.69-.64l-.37-4.51h-2.85l-.37,4.51a.65.65,0,0,1-.69.64h-4.19q-.64,0-.55-.64L227.81,217a.67.67,0,0,1,.74-.64h6.07a.67.67,0,0,1,.74.64Zm-6.16-9.66-.87-10.17h-.37l-.87,10.17Z" transform="translate(-175 -130)"/><path class="cls-1" d="M255.41,217v26.31a.57.57,0,0,1-.64.64h-2.94a.89.89,0,0,1-.53-.18,1,1,0,0,1-.34-.41l-4.88-12v12a.57.57,0,0,1-.64.64h-4.09a.57.57,0,0,1-.64-.64V217a.57.57,0,0,1,.64-.64h3a.89.89,0,0,1,.53.18,1,1,0,0,1,.35.41L250,230.36V217a.57.57,0,0,1,.64-.64h4.09A.57.57,0,0,1,255.41,217Z" transform="translate(-175 -130)"/><path class="cls-1" d="M267.74,216.52a5.82,5.82,0,0,1,3.08,3.08,5.6,5.6,0,0,1,.46,2.25v2.76a.79.79,0,0,1-.6.83l-4.19.64q-.6.18-.6-.46v-3.54a1.1,1.1,0,0,0-1.1-1.1h-.37a1.1,1.1,0,0,0-1.1,1.1v16.19a1.1,1.1,0,0,0,1.1,1.1h.37a1.1,1.1,0,0,0,1.1-1.1v-5.52q0-.64.6-.46l4.19.55a.79.79,0,0,1,.6.83v4.83a5.6,5.6,0,0,1-.46,2.25,5.82,5.82,0,0,1-3.08,3.08,5.6,5.6,0,0,1-2.25.46h-1.75a5.59,5.59,0,0,1-2.25-.46,5.82,5.82,0,0,1-3.08-3.08,5.59,5.59,0,0,1-.46-2.25V221.85a5.59,5.59,0,0,1,.46-2.25,5.82,5.82,0,0,1,3.08-3.08,5.59,5.59,0,0,1,2.25-.46h1.75A5.6,5.6,0,0,1,267.74,216.52Z" transform="translate(-175 -130)"/><path class="cls-1" d="M288,216.59a.45.45,0,0,1,0,.44l-5.29,16.28v10a.57.57,0,0,1-.64.64H278a.57.57,0,0,1-.64-.64v-10L272,217a.45.45,0,0,1,0-.44.47.47,0,0,1,.41-.21h4.88a.67.67,0,0,1,.74.64l1.84,8.83h.18L282,217a.67.67,0,0,1,.74-.64h4.88A.46.46,0,0,1,288,216.59Z" transform="translate(-175 -130)"/><path class="cls-2" d="M216.67,168.57a5.61,5.61,0,0,1,2.25.46,5.83,5.83,0,0,1,3.08,3.08,5.6,5.6,0,0,1,.46,2.25V195a5.6,5.6,0,0,1-.46,2.25,5.83,5.83,0,0,1-3.08,3.08,5.6,5.6,0,0,1-2.25.46h-6.9a.57.57,0,0,1-.64-.64V169.21a.57.57,0,0,1,.64-.64Zm.41,6a1.1,1.1,0,0,0-1.1-1.1h-1.47v22.36H216a1.1,1.1,0,0,0,1.1-1.1Z" transform="translate(-175 -130)"/><path class="cls-2" d="M236.27,196v4.09a.57.57,0,0,1-.64.64h-10a.57.57,0,0,1-.64-.64V169.21a.57.57,0,0,1,.64-.64h10a.57.57,0,0,1,.64.64v4.09a.57.57,0,0,1-.64.64h-5.24v6.62h4.55a.57.57,0,0,1,.64.64v4.09a.57.57,0,0,1-.64.64h-4.55v9.43h5.24A.57.57,0,0,1,236.27,196Z" transform="translate(-175 -130)"/><path class="cls-2" d="M247.68,168.71a5.82,5.82,0,0,1,3.08,3.08,5.6,5.6,0,0,1,.46,2.25v1.75a.79.79,0,0,1-.6.83l-4.19,1.1q-.6.18-.6-.46v-3a1.1,1.1,0,0,0-1.1-1.1h-.37a1.1,1.1,0,0,0-1.1,1.1v4.19a3.34,3.34,0,0,0,.18.87,2.11,2.11,0,0,0,.51.74l6,4.51a3,3,0,0,1,.94,1.31,8.08,8.08,0,0,1,.3,1.5v7.91a5.59,5.59,0,0,1-.46,2.25,5.83,5.83,0,0,1-3.08,3.08,5.61,5.61,0,0,1-2.25.46h-1.75a5.61,5.61,0,0,1-2.25-.46,5.83,5.83,0,0,1-3.08-3.08,5.59,5.59,0,0,1-.46-2.25v-4.42a.79.79,0,0,1,.6-.83l4.19-1.1c.4-.12.6,0,.6.46v5.66a1.1,1.1,0,0,0,1.1,1.1h.37a1.1,1.1,0,0,0,1.1-1.1V189a5,5,0,0,0-.18-1.06,1.8,1.8,0,0,0-.55-.83l-5.93-4.55a4.26,4.26,0,0,1-1-1.29,4.06,4.06,0,0,1-.3-1.7V174a5.6,5.6,0,0,1,.46-2.25,5.82,5.82,0,0,1,3.08-3.08,5.59,5.59,0,0,1,2.25-.46h1.75A5.6,5.6,0,0,1,247.68,168.71Z" transform="translate(-175 -130)"/><path class="cls-2" d="M258.9,200.12a.57.57,0,0,1-.64.64h-4.09a.57.57,0,0,1-.64-.64V169.21a.57.57,0,0,1,.64-.64h4.09a.57.57,0,0,1,.64.64Z" transform="translate(-175 -130)"/><path class="cls-2" d="M271.23,168.71a5.82,5.82,0,0,1,3.08,3.08,5.61,5.61,0,0,1,.46,2.25v1.47a.79.79,0,0,1-.6.83L270,177.86q-.6.18-.6-.46v-3.13a1.1,1.1,0,0,0-1.1-1.1h-.37a1.1,1.1,0,0,0-1.1,1.1v20.79a1.1,1.1,0,0,0,1.1,1.1h.37a1.1,1.1,0,0,0,1.1-1.1v-8.19H268.1v-5.24h6a.57.57,0,0,1,.64.64v13a5.6,5.6,0,0,1-.46,2.25,5.83,5.83,0,0,1-3.08,3.08,5.61,5.61,0,0,1-2.25.46h-1.75a5.61,5.61,0,0,1-2.25-.46,5.83,5.83,0,0,1-3.08-3.08,5.59,5.59,0,0,1-.46-2.25V174a5.6,5.6,0,0,1,.46-2.25,5.82,5.82,0,0,1,3.08-3.08,5.59,5.59,0,0,1,2.25-.46H269A5.6,5.6,0,0,1,271.23,168.71Z" transform="translate(-175 -130)"/><path class="cls-2" d="M292,169.21v30.91a.57.57,0,0,1-.64.64h-2.94a.89.89,0,0,1-.53-.18,1,1,0,0,1-.34-.41l-4.88-15.23v15.18a.57.57,0,0,1-.64.64h-4.09a.57.57,0,0,1-.64-.64V169.21a.57.57,0,0,1,.64-.64h3a.88.88,0,0,1,.53.18,1,1,0,0,1,.35.41l4.78,14.77V169.21a.57.57,0,0,1,.64-.64h4.09A.57.57,0,0,1,292,169.21Z" transform="translate(-175 -130)"/><rect class="cls-2" x="10" y="50.24" width="11.68" height="8"/><rect class="cls-2" x="128.32" y="50.24" width="11.68" height="8"/><path class="cls-3" d="M195,130a20,20,0,0,0-20,20V261a14,14,0,0,1,0,28h0v31.82L250,370V130Z" transform="translate(-175 -130)"/></svg>