<svg id="Ebene_7" data-name="Ebene 7" xmlns="http://www.w3.org/2000/svg" viewBox="0 0 150 240"><defs><style>.cls-1{fill:#222;}.cls-2,.cls-4{fill:#fff;}.cls-3{fill:#fdca11;}.cls-4{opacity:0.25;}</style></defs><title>shield-coding</title><path class="cls-1" d="M325,261V150a20,20,0,0,0-20-20H195a20,20,0,0,0-20,20V261a14,14,0,0,1,0,28h0v31.82L250,370l75-49.21V289h0a14,14,0,0,1,0-28Z" transform="translate(-175 -130)"/><path class="cls-2" d="M319,255.89V150a14,14,0,0,0-14-14H195a14,14,0,0,0-14,14V255.89a20,20,0,0,1,0,38.16v23.5l69,45.27,69-45.27v-23.5a20,20,0,0,1,0-38.16Z" transform="translate(-175 -130)"/><path class="cls-1" d="M315,253.15V150a10,10,0,0,0-10-10H195a10,10,0,0,0-10,10V253.15a24,24,0,0,1,0,43.63v18.61L250,358l65-42.65V296.78a24,24,0,0,1,0-43.63Z" transform="translate(-175 -130)"/><polygon class="cls-2" points="30 157.96 30 158.96 64.57 158.96 75 165.81 85.43 158.96 120 158.96 120 157.96 30 157.96"/><rect class="cls-2" x="30" y="130.97" width="90" height="1"/><path class="cls-2" d="M221.42,278.92H223v-7.47h-2.37v1.62h-1.28V270.3H228v2.75h-1.3v-1.62h-2.35v7.47h1.54v1.14h-4.48Z" transform="translate(-175 -130)"/><path class="cls-2" d="M229.74,278.92h1.44v-7.47h-1.44V270.3H234v1.14h-1.44v3.12h5.22v-3.12h-1.44V270.3h4.27v1.14h-1.42v7.47h1.42v1.14h-4.27v-1.14h1.44v-3.17h-5.22v3.17H234v1.14h-4.29Z" transform="translate(-175 -130)"/><path class="cls-2" d="M242.67,278.92h1.44v-7.47h-1.44V270.3h4.27v1.14h-1.42v7.47h1.42v1.14h-4.27Z" transform="translate(-175 -130)"/><path class="cls-2" d="M249,278.92h1.44v-7.47H249V270.3h2.88l5.27,7.48v-6.34h-1.42V270.3h4.19v1.14h-1.42v8.61h-1.26l-5.46-7.7v6.56h1.42v1.14H249Z" transform="translate(-175 -130)"/><path class="cls-2" d="M261.58,275.23c0-3,1.89-5.12,5.27-5.12a9.07,9.07,0,0,1,3.7.8v2.35h-1.31v-1.58a8.18,8.18,0,0,0-2.34-.38A3.61,3.61,0,0,0,263,275.2a3.54,3.54,0,0,0,3.87,3.84,6.92,6.92,0,0,0,2.42-.46v-2.53H267v-1.12h4.48v1.12h-.9v3.27a8.06,8.06,0,0,1-3.76.93C263.58,280.25,261.58,278.32,261.58,275.23Z" transform="translate(-175 -130)"/><path class="cls-2" d="M273.41,279.73v-2.27h1.28v1.39a8.11,8.11,0,0,0,2,.26c1.34,0,2.31-.45,2.31-1.47,0-2.5-5.41-1.33-5.41-4.83,0-1.79,1.42-2.69,3.49-2.69a9.88,9.88,0,0,1,3,.5v2.24h-1.3v-1.41a7.77,7.77,0,0,0-1.63-.19c-1.33,0-2.18.51-2.18,1.42,0,2.34,5.41,1.25,5.41,4.87,0,1.94-1.57,2.71-3.59,2.71A13,13,0,0,1,273.41,279.73Z" transform="translate(-175 -130)"/><polygon id="shield-star" class="cls-3" points="75.01 196.18 68.82 200.49 70.99 193.3 65 188.76 72.55 188.59 75.01 181.46 77.46 188.59 85 188.76 79.01 193.3 81.2 200.49 75.01 196.18"/><rect class="cls-3" x="29.97" y="79.48" width="90" height="41.24"/><path class="cls-1" d="M225.4,217v4.09a.57.57,0,0,1-.64.64h-3.27v21.57a.57.57,0,0,1-.64.64h-4.09a.65.65,0,0,1-.44-.18.59.59,0,0,1-.21-.46V221.76h-3.22a.57.57,0,0,1-.64-.64V217a.57.57,0,0,1,.64-.64h11.87A.57.57,0,0,1,225.4,217Z" transform="translate(-175 -130)"/><path class="cls-1" d="M238.74,239.24v4.09a.57.57,0,0,1-.64.64h-10a.57.57,0,0,1-.64-.64V217a.57.57,0,0,1,.64-.64h10a.57.57,0,0,1,.64.64v4.09a.57.57,0,0,1-.64.64h-5.24V227h4.55a.57.57,0,0,1,.64.64v4.09a.57.57,0,0,1-.64.64h-4.55v6.21h5.24A.57.57,0,0,1,238.74,239.24Z" transform="translate(-175 -130)"/><path class="cls-1" d="M250.84,216.52a5.82,5.82,0,0,1,3.08,3.08,5.6,5.6,0,0,1,.46,2.25v2.76a.79.79,0,0,1-.6.83l-4.19.64q-.6.18-.6-.46v-3.54a1.1,1.1,0,0,0-1.1-1.1h-.37a1.1,1.1,0,0,0-1.1,1.1v16.19a1.1,1.1,0,0,0,1.1,1.1h.37a1.1,1.1,0,0,0,1.1-1.1v-5.52q0-.64.6-.46l4.19.55a.79.79,0,0,1,.6.83v4.83a5.6,5.6,0,0,1-.46,2.25,5.82,5.82,0,0,1-3.08,3.08,5.6,5.6,0,0,1-2.25.46h-1.75a5.59,5.59,0,0,1-2.25-.46,5.82,5.82,0,0,1-3.08-3.08,5.59,5.59,0,0,1-.46-2.25V221.85a5.59,5.59,0,0,1,.46-2.25,5.82,5.82,0,0,1,3.08-3.08,5.59,5.59,0,0,1,2.25-.46h1.75A5.6,5.6,0,0,1,250.84,216.52Z" transform="translate(-175 -130)"/><path class="cls-1" d="M270.48,217v26.31a.57.57,0,0,1-.64.64h-4.09a.57.57,0,0,1-.64-.64v-10.4h-3v10.4a.57.57,0,0,1-.64.64h-4.09a.57.57,0,0,1-.64-.64V217a.57.57,0,0,1,.64-.64h4.09a.57.57,0,0,1,.64.64v10.53h3V217a.57.57,0,0,1,.64-.64h4.09A.57.57,0,0,1,270.48,217Z" transform="translate(-175 -130)"/><path class="cls-1" d="M287.87,216.59a.45.45,0,0,1,0,.44l-5.29,16.28v10a.57.57,0,0,1-.64.64h-4.14a.57.57,0,0,1-.64-.64v-10L271.9,217a.45.45,0,0,1,0-.44.47.47,0,0,1,.41-.21h4.88a.67.67,0,0,1,.74.64l1.84,8.83H280l1.84-8.83a.67.67,0,0,1,.74-.64h4.88A.46.46,0,0,1,287.87,216.59Z" transform="translate(-175 -130)"/><path class="cls-2" d="M217.43,168.71a5.82,5.82,0,0,1,3.08,3.08A5.61,5.61,0,0,1,221,174v3.68a.79.79,0,0,1-.6.83l-4.19.64q-.6.18-.6-.46v-4.46a1.1,1.1,0,0,0-1.1-1.1h-.37a1.1,1.1,0,0,0-1.1,1.1v20.79a1.1,1.1,0,0,0,1.1,1.1h.37a1.1,1.1,0,0,0,1.1-1.1v-6.44q0-.64.6-.46l4.19.55a.79.79,0,0,1,.6.83v5.75a5.6,5.6,0,0,1-.46,2.25,5.83,5.83,0,0,1-3.08,3.08,5.61,5.61,0,0,1-2.25.46h-1.75a5.61,5.61,0,0,1-2.25-.46,5.83,5.83,0,0,1-3.08-3.08,5.59,5.59,0,0,1-.46-2.25V174a5.6,5.6,0,0,1,.46-2.25,5.82,5.82,0,0,1,3.08-3.08,5.59,5.59,0,0,1,2.25-.46h1.75A5.6,5.6,0,0,1,217.43,168.71Z" transform="translate(-175 -130)"/><path class="cls-2" d="M236.16,195.29a5.6,5.6,0,0,1-.46,2.25,5.83,5.83,0,0,1-3.08,3.08,5.61,5.61,0,0,1-2.25.46h-1.75a5.61,5.61,0,0,1-2.25-.46,5.83,5.83,0,0,1-3.08-3.08,5.59,5.59,0,0,1-.46-2.25V174a5.6,5.6,0,0,1,.46-2.25,5.82,5.82,0,0,1,3.08-3.08,5.59,5.59,0,0,1,2.25-.46h1.75a5.6,5.6,0,0,1,2.25.46,5.82,5.82,0,0,1,3.08,3.08,5.61,5.61,0,0,1,.46,2.25Zm-5.38-21a1.1,1.1,0,0,0-1.1-1.1h-.37a1.1,1.1,0,0,0-1.1,1.1v20.79a1.1,1.1,0,0,0,1.1,1.1h.37a1.1,1.1,0,0,0,1.1-1.1Z" transform="translate(-175 -130)"/><path class="cls-2" d="M246.23,168.57a5.61,5.61,0,0,1,2.25.46,5.83,5.83,0,0,1,3.08,3.08,5.6,5.6,0,0,1,.46,2.25V195a5.6,5.6,0,0,1-.46,2.25,5.83,5.83,0,0,1-3.08,3.08,5.6,5.6,0,0,1-2.25.46h-6.9a.57.57,0,0,1-.64-.64V169.21a.57.57,0,0,1,.64-.64Zm.41,6a1.1,1.1,0,0,0-1.1-1.1h-1.47v22.36h1.47a1.1,1.1,0,0,0,1.1-1.1Z" transform="translate(-175 -130)"/><path class="cls-2" d="M259.94,200.12a.57.57,0,0,1-.64.64H255.2a.57.57,0,0,1-.64-.64V169.21a.57.57,0,0,1,.64-.64h4.09a.57.57,0,0,1,.64.64Z" transform="translate(-175 -130)"/><path class="cls-2" d="M277.65,169.21v30.91a.57.57,0,0,1-.64.64h-2.94a.89.89,0,0,1-.53-.18,1,1,0,0,1-.34-.41l-4.88-15.23v15.18a.57.57,0,0,1-.64.64h-4.09a.57.57,0,0,1-.64-.64V169.21a.57.57,0,0,1,.64-.64h3a.88.88,0,0,1,.53.18,1,1,0,0,1,.35.41l4.78,14.77V169.21a.57.57,0,0,1,.64-.64H277A.57.57,0,0,1,277.65,169.21Z" transform="translate(-175 -130)"/><path class="cls-2" d="M290,168.71a5.82,5.82,0,0,1,3.08,3.08,5.61,5.61,0,0,1,.46,2.25v1.47a.79.79,0,0,1-.6.83l-4.19,1.52q-.6.18-.6-.46v-3.13a1.1,1.1,0,0,0-1.1-1.1h-.37a1.1,1.1,0,0,0-1.1,1.1v20.79a1.1,1.1,0,0,0,1.1,1.1H287a1.1,1.1,0,0,0,1.1-1.1v-8.19h-1.29v-5.24h6a.57.57,0,0,1,.64.64v13a5.6,5.6,0,0,1-.46,2.25,5.83,5.83,0,0,1-3.08,3.08,5.61,5.61,0,0,1-2.25.46H286a5.61,5.61,0,0,1-2.25-.46,5.83,5.83,0,0,1-3.08-3.08,5.59,5.59,0,0,1-.46-2.25V174a5.6,5.6,0,0,1,.46-2.25,5.82,5.82,0,0,1,3.08-3.08,5.59,5.59,0,0,1,2.25-.46h1.75A5.6,5.6,0,0,1,290,168.71Z" transform="translate(-175 -130)"/><rect class="cls-2" x="10" y="50.24" width="11.68" height="8"/><rect class="cls-2" x="128.32" y="50.24" width="11.68" height="8"/><path class="cls-4" d="M195,130a20,20,0,0,0-20,20V261a14,14,0,0,1,0,28h0v31.82L250,370V130Z" transform="translate(-175 -130)"/></svg>