<svg id="Isolationsmodus" xmlns="http://www.w3.org/2000/svg" viewBox="0 0 82.74 48"><defs><style>.cls-1{fill:#555;}.cls-2{fill:#fcc911;}.cls-3{fill:#222;}</style></defs><title>slick-nav-arrows</title><path class="cls-1" d="M59.78,23l9.82,17L59.78,57H40.15L30.33,40l9.81-17H59.78m.58-1H39.57L29.18,40,39.57,58H60.35L70.75,40,60.35,22Z" transform="translate(-8.63 -16)"/><polygon class="cls-2" points="59.65 15.73 64.43 24 59.65 32.27 63.12 34.27 69.04 24 63.12 13.73 59.65 15.73"/><polygon class="cls-3" points="57.65 35.73 52.88 44 43.33 44 43.33 48 55.19 48 61.12 37.73 57.65 35.73"/><polygon class="cls-3" points="43.33 4 52.88 4 57.65 12.27 61.12 10.27 55.19 0 43.33 0 43.33 4"/><polygon class="cls-3" points="68.35 15.73 73.12 24 68.35 32.27 76.81 32.27 82.74 24 76.81 15.73 68.35 15.73"/><polygon class="cls-3" points="25.01 12.27 29.79 4 39.33 4 39.33 0 27.48 0 21.55 10.27 25.01 12.27"/><polygon class="cls-3" points="23.01 32.27 18.24 24 23.01 15.73 19.55 13.73 13.62 24 19.55 34.27 23.01 32.27"/><polygon class="cls-3" points="14.39 32.27 9.62 24 14.39 15.73 5.93 15.73 0 24 5.93 32.27 14.39 32.27"/><polygon class="cls-3" points="39.33 44 29.79 44 25.01 35.73 21.55 37.73 27.48 48 39.33 48 39.33 44"/><polygon id="shield-star" class="cls-3" points="41.34 27.17 36.38 30.61 38.13 24.86 33.33 21.23 39.37 21.09 41.34 15.39 43.3 21.09 49.33 21.23 44.54 24.86 46.29 30.61 41.34 27.17"/></svg>