<svg id="Ebene_7" data-name="Ebene 7" xmlns="http://www.w3.org/2000/svg" viewBox="0 0 290 432"><defs><style>.cls-1,.cls-13,.cls-6{fill:#fff;}.cls-10,.cls-2{fill:#222;}.cls-3{fill:#1e1e1e;}.cls-4{fill:#fdca11;}.cls-5{fill:#fab117;}.cls-6{font-size:16px;font-family:KlinicSlab-Medium, Klinic Slab;letter-spacing:0.05em;}.cls-7{letter-spacing:0.04em;}.cls-8{letter-spacing:0.03em;}.cls-9{letter-spacing:0.05em;}.cls-10{font-size:46.1px;font-family:Franchise-Bold, Franchise;letter-spacing:-0.02em;}.cls-11{opacity:0.15;}.cls-12{fill:none;}.cls-13{opacity:0.1;}.cls-14{fill:#f26651;}</style></defs><title>logo</title><path class="cls-1" d="M200,290.16a20,20,0,0,1,14-19V72.46a14,14,0,0,0-14-14H90a14,14,0,0,0-14,14V271.14a20,20,0,0,1,0,38.16v23.5l69,45.27,69-45.27V309.3A20,20,0,0,1,200,290.16Z"/><circle class="cls-2" cx="70" cy="290.22" r="10" transform="translate(-0.91 0.22) rotate(-0.18)"/><path class="cls-2" d="M65,280.23v-6.1a5.32,5.32,0,0,0-5.38-5.28H22.07a5.38,5.38,0,0,0-5.31,5.43V295a5.32,5.32,0,0,0,5.41,5.27H70V280.23Zm-6.67,13.39H23.46V275.54H58.32Z"/><circle class="cls-2" cx="220" cy="290.22" r="10" transform="translate(-70.91 509.31) rotate(-89.82)"/><path class="cls-2" d="M220,280.23v20.07h47.83a5.32,5.32,0,0,0,5.41-5.27V274.27a5.38,5.38,0,0,0-5.31-5.43H230.39a5.32,5.32,0,0,0-5.38,5.28v6.1Zm11.68-4.69h34.86v18.07H231.68Z"/><path class="cls-3" d="M145,96.82a11.41,11.41,0,0,1,5.9,1.65l.5-.32A22,22,0,0,1,163,95.62a22,22,0,0,0-17.65-9.31A24.91,24.91,0,0,0,143.7,89a19.16,19.16,0,0,0-2.39,8.48A11.47,11.47,0,0,1,145,96.82Z"/><path class="cls-3" d="M128.9,119.11a19.19,19.19,0,0,0,8.54-2.17,11.44,11.44,0,0,1-3.92-8.63c0-.07,0-.13,0-.2-.17-.09-.36-.18-.52-.27a22,22,0,0,1-8-8.76,22,22,0,0,0,.76,19.94A25.38,25.38,0,0,0,128.9,119.11Z"/><path class="cls-3" d="M133.74,106.07a11.48,11.48,0,0,1,5.68-7.79c0-.2,0-.4,0-.59A22,22,0,0,1,143,86.4,22,22,0,0,0,126.11,97a25.15,25.15,0,0,0,1.48,2.74A19.19,19.19,0,0,0,133.74,106.07Z"/><path class="cls-3" d="M164.21,97.59a25.16,25.16,0,0,0-3.11-.09,19.18,19.18,0,0,0-8.54,2.17,11.44,11.44,0,0,1,3.93,8.63c0,.07,0,.13,0,.2.17.09.36.18.52.27a22,22,0,0,1,8,8.76,22,22,0,0,0-.76-19.94Z"/><path class="cls-3" d="M145,119.78a11.41,11.41,0,0,1-5.9-1.65l-.5.32A22,22,0,0,1,127,121a22,22,0,0,0,17.64,9.31,24.92,24.92,0,0,0,1.63-2.65,19.16,19.16,0,0,0,2.39-8.48A11.44,11.44,0,0,1,145,119.78Z"/><path class="cls-3" d="M156.26,110.54a11.49,11.49,0,0,1-5.68,7.79c0,.2,0,.4,0,.59A22,22,0,0,1,147,130.21a22,22,0,0,0,16.89-10.62,25,25,0,0,0-1.48-2.74A19.16,19.16,0,0,0,156.26,110.54Z"/><rect class="cls-4" x="104.68" y="130.6" width="8" height="8"/><polygon class="cls-5" points="93.55 351.49 145 385.25 93.55 351.49 93.55 351.49"/><polygon class="cls-5" points="145 385.25 196.45 351.49 196.45 351.49 145 385.25"/><polygon class="cls-2" points="125.35 338.95 125.35 360.4 141.15 370.76 145 372.99 148.85 370.76 164.65 360.4 164.65 338.95 145 327.61 125.35 338.95"/><path class="cls-2" d="M196,290.14a24,24,0,0,1,14-21.74V116.6H173.83a30,30,0,0,1-57.66,0H80v14H95.69v8H80V268.4A24,24,0,0,1,80,312v18.61l43.35,28.44V337.8L145,325.3l21.65,12.5v21.29L210,330.64V312A24,24,0,0,1,196,290.14Z"/><path class="cls-2" d="M145,78.31a30,30,0,0,1,29.24,23.29H210V72.46a10,10,0,0,0-10-10H90a10,10,0,0,0-10,10V101.6h35.76A30,30,0,0,1,145,78.31Z"/><polygon class="cls-1" points="100 303.22 100 304.22 134.57 304.22 145 311.06 155.43 304.22 190 304.22 190 303.22 100 303.22"/><rect class="cls-1" x="100" y="276.22" width="90" height="1"/><text class="cls-6" transform="translate(103.88 295.31)">KEIL<tspan class="cls-7" x="37.62" y="0">B</tspan><tspan class="cls-8" x="48.02" y="0">A</tspan><tspan class="cls-9" x="59.41" y="0">CH</tspan></text><path class="cls-1" d="M124.81,155.28a1.11,1.11,0,0,1,1.26,1.26v51a10.94,10.94,0,0,1-.9,4.41,11.39,11.39,0,0,1-6,6,11,11,0,0,1-4.41.9h-3.42a10.93,10.93,0,0,1-4.41-.9,11.39,11.39,0,0,1-6-6,10.91,10.91,0,0,1-.9-4.41V196.09a1.54,1.54,0,0,1,1.17-1.62l8.18-2.16q1.17-.36,1.17.9v13.84a2.15,2.15,0,0,0,2.16,2.16h.72a2.15,2.15,0,0,0,2.16-2.16V156.54a1.11,1.11,0,0,1,1.26-1.26Z"/><path class="cls-1" d="M157.53,216.95q.18,1.26-1.08,1.26h-8.18a1.27,1.27,0,0,1-1.35-1.26l-.72-9.71h-5.57l-.72,9.71a1.27,1.27,0,0,1-1.35,1.26h-8.18q-1.26,0-1.08-1.26L136,156.54a1.31,1.31,0,0,1,1.44-1.26h11.87a1.31,1.31,0,0,1,1.44,1.26Zm-12-19.78-1.71-24.36h-.72l-1.71,24.36Z"/><path class="cls-1" d="M190,156.54v60.41a1.11,1.11,0,0,1-1.26,1.26H183a1.73,1.73,0,0,1-1-.36,1.87,1.87,0,0,1-.67-.81l-9.53-29.76v29.67a1.11,1.11,0,0,1-1.26,1.26h-8a1.11,1.11,0,0,1-1.26-1.26V156.54a1.11,1.11,0,0,1,1.26-1.26h5.93a1.74,1.74,0,0,1,1,.36,1.92,1.92,0,0,1,.67.81l9.35,28.86V156.54a1.11,1.11,0,0,1,1.26-1.26h8A1.11,1.11,0,0,1,190,156.54Z"/><rect class="cls-1" x="79.35" y="101.6" width="130.65" height="15"/><circle class="cls-1" cx="145" cy="108.31" r="30"/><rect class="cls-1" x="79.35" y="130.6" width="16.33" height="8"/><rect class="cls-4" x="99.97" y="224.74" width="90" height="41.24"/><text class="cls-10" transform="translate(103.06 259.23)">pieter</text><path class="cls-2" d="M145,96.82a11.41,11.41,0,0,1,5.9,1.65l.5-.32A22,22,0,0,1,163,95.62a22,22,0,0,0-17.65-9.31A24.91,24.91,0,0,0,143.7,89a19.16,19.16,0,0,0-2.39,8.48A11.47,11.47,0,0,1,145,96.82Z"/><path class="cls-2" d="M128.9,119.11a19.19,19.19,0,0,0,8.54-2.17,11.44,11.44,0,0,1-3.92-8.63c0-.07,0-.13,0-.2-.17-.09-.36-.18-.52-.27a22,22,0,0,1-8-8.76,22,22,0,0,0,.76,19.94A25.38,25.38,0,0,0,128.9,119.11Z"/><path class="cls-2" d="M133.74,106.07a11.48,11.48,0,0,1,5.68-7.79c0-.2,0-.4,0-.59A22,22,0,0,1,143,86.4,22,22,0,0,0,126.11,97a25.15,25.15,0,0,0,1.48,2.74A19.19,19.19,0,0,0,133.74,106.07Z"/><path class="cls-2" d="M164.21,97.59a25.16,25.16,0,0,0-3.11-.09,19.18,19.18,0,0,0-8.54,2.17,11.44,11.44,0,0,1,3.93,8.63c0,.07,0,.13,0,.2.17.09.36.18.52.27a22,22,0,0,1,8,8.76,22,22,0,0,0-.76-19.94Z"/><path class="cls-2" d="M145,119.78a11.41,11.41,0,0,1-5.9-1.65l-.5.32A22,22,0,0,1,127,121a22,22,0,0,0,17.64,9.31,24.92,24.92,0,0,0,1.63-2.65,19.16,19.16,0,0,0,2.39-8.48A11.44,11.44,0,0,1,145,119.78Z"/><path class="cls-2" d="M156.26,110.54a11.49,11.49,0,0,1-5.68,7.79c0,.2,0,.4,0,.59A22,22,0,0,1,147,130.21a22,22,0,0,0,16.89-10.62,25,25,0,0,0-1.48-2.74A19.16,19.16,0,0,0,156.26,110.54Z"/><rect class="cls-5" x="104.68" y="130.6" width="8" height="8"/><polygon id="shield-star" class="cls-4" points="145.01 354.1 138.82 358.4 140.99 351.21 135 346.68 142.55 346.51 145.01 339.38 147.46 346.51 155 346.68 149.01 351.21 151.2 358.4 145.01 354.1"/><g class="cls-11"><polygon class="cls-1" points="97.25 374.02 97.25 422.26 107.2 417.33 107.2 378.9 97.25 374.02"/><path class="cls-1" d="M70.08,304.22h0Z"/><path class="cls-1" d="M103.33,215.51a11.47,11.47,0,0,0,3.6,2.43,10.93,10.93,0,0,0,4.41.9h3.42a11,11,0,0,0,4.41-.9,11.39,11.39,0,0,0,6-6,10.94,10.94,0,0,0,.9-4.41v-51a1.11,1.11,0,0,0-1.26-1.26h-8a1.11,1.11,0,0,0-1.26,1.26v50.52a2.15,2.15,0,0,1-2.16,2.16h-.72a2.15,2.15,0,0,1-2.16-2.16V193.22q0-1.26-1.17-.9l-8.18,2.16a1.54,1.54,0,0,0-1.17,1.62v11.42a10.91,10.91,0,0,0,.9,4.41A11.47,11.47,0,0,0,103.33,215.51Z"/><polygon class="cls-1" points="108.86 294.17 107.34 294.17 107.34 286.69 108.73 286.69 108.73 285.56 104.49 285.56 104.49 286.69 105.93 286.69 105.93 294.17 104.49 294.17 104.49 295.31 108.86 295.31 108.86 294.17"/><polygon class="cls-1" points="107.98 290.38 107.98 290.47 112.16 295.31 114.49 295.31 114.49 294.17 113.02 294.17 109.67 290.34 113.11 286.69 114.35 286.69 114.35 285.56 110.25 285.56 110.25 286.68 111.52 286.68 107.98 290.38"/><rect class="cls-1" x="100" y="276.22" width="45" height="1"/><rect class="cls-1" x="99.97" y="224.74" width="45.03" height="41.24"/><polygon class="cls-1" points="100 304.22 134.57 304.22 145 311.06 145 303.22 100 303.22 100 304.22"/><path class="cls-1" d="M136,156.54l-6.74,60.41q-.18,1.26,1.08,1.26h8.18a1.27,1.27,0,0,0,1.35-1.26l.72-9.71H145V197.17h-3.65l1.71-24.36h.72l1.22,17.4V155.28h-7.51A1.31,1.31,0,0,0,136,156.54Z"/><polygon class="cls-1" points="130.47 294.17 129.05 294.17 129.05 286.69 130.47 286.69 130.47 285.56 126.2 285.56 126.2 286.69 127.64 286.69 127.64 294.17 126.2 294.17 126.2 295.31 130.47 295.31 130.47 294.17"/><polygon class="cls-1" points="140.43 292.42 139.12 292.42 139.12 294.17 135.34 294.17 135.34 286.69 136.97 286.69 136.97 285.56 132.49 285.56 132.49 286.69 133.93 286.69 133.93 294.17 132.49 294.17 132.49 295.31 140.43 295.31 140.43 292.42"/><polygon class="cls-1" points="124.04 292.52 122.73 292.52 122.73 294.17 118.95 294.17 118.95 290.97 122.99 290.97 122.99 289.83 118.95 289.83 118.95 286.69 122.7 286.69 122.7 288.29 124 288.29 124 285.56 116.1 285.56 116.1 286.69 117.55 286.69 117.55 294.17 116.1 294.17 116.1 295.31 124.04 295.31 124.04 292.52"/><rect class="cls-1" x="23.46" y="275.54" width="34.86" height="18.07"/><path class="cls-1" d="M76,72.46V271.14a20,20,0,0,1,0,38.16v23.5l69,45.27V373l-3.85-2.22-15.8-10.37V339L145,327.61V325.3l-21.65,12.5v21.29L80,330.64V312a24,24,0,0,0,0-43.63V138.6H95.69v-8H80v-14h36.17A30,30,0,0,0,145,138.31v-8.48l-.33.47A22,22,0,0,1,127,121a22,22,0,0,0,11.57-2.53l.5-.32a11.41,11.41,0,0,0,5.9,1.65v-23a11.47,11.47,0,0,0-3.69.62A19.16,19.16,0,0,1,143.7,89a24.8,24.8,0,0,1,1.3-2.17V78.31a30,30,0,0,0-29.24,23.29H80V72.46a10,10,0,0,1,10-10h55v-4H90A14,14,0,0,0,76,72.46ZM143,86.4a22,22,0,0,0-3.59,11.28c0,.2,0,.4,0,.59a11.48,11.48,0,0,0-5.68,7.79,19.19,19.19,0,0,1-6.15-6.31A25.14,25.14,0,0,1,126.11,97,22,22,0,0,1,143,86.4ZM125,99.08a22,22,0,0,0,8,8.76c.17.1.35.18.52.27,0,.07,0,.13,0,.2a11.44,11.44,0,0,0,3.92,8.63,19.19,19.19,0,0,1-8.54,2.17,25.38,25.38,0,0,1-3.11-.09A22,22,0,0,1,125,99.08Z"/><polygon class="cls-1" points="142.1 286.69 143.54 286.69 143.54 294.17 142.1 294.17 142.1 295.31 145 295.31 145 294.19 144.92 294.19 144.92 290.9 145 290.9 145 289.81 144.92 289.81 144.92 286.68 145 286.68 145 285.56 142.1 285.56 142.1 286.69"/><path class="cls-1" d="M70,300.22h0a10,10,0,1,0-.06-20h0Z"/><path class="cls-1" d="M22.17,300.29H70v-.08a10,10,0,0,1-.18-20H65v-6.1a5.32,5.32,0,0,0-5.38-5.28H22.07a5.38,5.38,0,0,0-5.31,5.43V295A5.32,5.32,0,0,0,22.17,300.29Zm1.29-24.75H58.32v18.07H23.46Z"/><path class="cls-1" d="M60,290.25a10,10,0,0,0,10,10v-20h-.18A10,10,0,0,0,60,290.25Z"/><polygon class="cls-1" points="138.82 358.4 140.99 351.21 135 346.68 142.55 346.51 145 339.42 145 327.61 125.35 338.95 125.35 360.4 141.15 370.76 145 372.99 145 354.11 138.82 358.4"/><path class="cls-1" d="M134.57,304.22H100v-1h45v-7.91h-2.9v-1.14h1.44v-7.47H142.1v-1.14H145v-8.34H100v-1h45V266H100V224.74h45v-17.5h-4.37l-.72,9.71a1.27,1.27,0,0,1-1.35,1.26h-8.18q-1.26,0-1.08-1.26L136,156.54a1.31,1.31,0,0,1,1.44-1.26H145v-17a30,30,0,0,1-28.83-21.71H80v14H95.69v8H80V268.4A24,24,0,0,1,80,312v18.61l43.35,28.44V337.8L145,325.3V311.06Zm-2.08-10h1.44v-7.47h-1.44v-1.14H137v1.14h-1.63v7.47h3.78v-1.74h1.31v2.88h-7.94Zm-6.29,0h1.44v-7.47H126.2v-1.14h4.27v1.14H129v7.47h1.42v1.14H126.2Zm-10.1,0h1.44v-7.47H116.1v-1.14H124v2.74h-1.3v-1.6H119v3.14h4V291h-4v3.2h3.78v-1.65H124v2.79H116.1Zm-5.85-8.61h4.1v1.14h-1.23l-3.44,3.65,3.35,3.83h1.47v1.14h-2.34L108,290.47v-.1l3.54-3.7h-1.26Zm-5.76,8.61h1.44v-7.47h-1.44v-1.14h4.24v1.14h-1.39v7.47h1.52v1.14h-4.37Zm.19-163.57h8v8h-8ZM100,196.09a1.54,1.54,0,0,1,1.17-1.62l8.18-2.16q1.17-.36,1.17.9v13.84a2.15,2.15,0,0,0,2.16,2.16h.72a2.15,2.15,0,0,0,2.16-2.16V156.54a1.11,1.11,0,0,1,1.26-1.26h8a1.11,1.11,0,0,1,1.26,1.26v51a10.94,10.94,0,0,1-.9,4.41,11.39,11.39,0,0,1-6,6,11,11,0,0,1-4.41.9h-3.42a10.93,10.93,0,0,1-4.41-.9,11.39,11.39,0,0,1-6-6,10.91,10.91,0,0,1-.9-4.41Z"/><path class="cls-1" d="M90,62.46a10,10,0,0,0-10,10V101.6h35.76A30,30,0,0,1,145,78.31V62.46Z"/><rect class="cls-1" x="144.92" y="286.68" width="0.08" height="3.14"/><rect class="cls-1" x="144.92" y="290.9" width="0.08" height="3.28"/><polygon class="cls-1" points="145 190.22 145 197.17 145.49 197.17 145 190.22"/><polygon class="cls-1" points="143.78 172.81 143.06 172.81 141.35 197.17 145 197.17 145 190.22 143.78 172.81"/><polygon class="cls-1" points="135 346.68 140.99 351.21 138.82 358.4 145 354.11 145 339.42 142.55 346.51 135 346.68"/><path class="cls-1" d="M56.35,80.25V11.91a6,6,0,1,0-2,0V129.27L70,141V80.25Z"/><path class="cls-1" d="M143.7,89a19.16,19.16,0,0,0-2.39,8.48,11.47,11.47,0,0,1,3.69-.62v-10A24.8,24.8,0,0,0,143.7,89Z"/><path class="cls-1" d="M128.9,119.11a19.19,19.19,0,0,0,8.54-2.17,11.44,11.44,0,0,1-3.92-8.63c0-.07,0-.13,0-.2-.17-.09-.36-.18-.52-.27a22,22,0,0,1-8-8.76,22,22,0,0,0,.76,19.94A25.38,25.38,0,0,0,128.9,119.11Z"/><path class="cls-1" d="M133.74,106.07a11.48,11.48,0,0,1,5.68-7.79c0-.2,0-.4,0-.59A22,22,0,0,1,143,86.4,22,22,0,0,0,126.11,97a25.14,25.14,0,0,0,1.48,2.74A19.19,19.19,0,0,0,133.74,106.07Z"/><path class="cls-1" d="M139.1,118.14l-.5.32A22,22,0,0,1,127,121a22,22,0,0,0,17.64,9.31l.33-.47v-10A11.41,11.41,0,0,1,139.1,118.14Z"/><rect class="cls-1" x="104.68" y="130.6" width="8" height="8"/><path class="cls-1" d="M112,236.51h-1.48v7.88H112a1.1,1.1,0,0,0,1.11-1.11v-5.67a1.1,1.1,0,0,0-1.11-1.11Z"/><path class="cls-1" d="M116.8,233.28A5.93,5.93,0,0,0,115,232a5.62,5.62,0,0,0-2.26-.46h-6.91a.57.57,0,0,0-.65.65v26.37a.57.57,0,0,0,.65.65h4.1a.57.57,0,0,0,.65-.65v-9.27h2.17a5.61,5.61,0,0,0,2.26-.46,5.84,5.84,0,0,0,3.09-3.09,5.61,5.61,0,0,0,.46-2.26v-6.13a5.62,5.62,0,0,0-.46-2.26A5.93,5.93,0,0,0,116.8,233.28Zm-3.69,10a1.1,1.1,0,0,1-1.11,1.11h-1.48v-7.88H112a1.1,1.1,0,0,1,1.11,1.11Z"/><rect class="cls-1" x="120.35" y="231.57" width="5.39" height="27.66" rx="0.65" ry="0.65"/><path class="cls-1" d="M139.39,231.57h-10a.57.57,0,0,0-.65.65v26.37a.57.57,0,0,0,.65.65h10a.57.57,0,0,0,.65-.65v-4.1a.57.57,0,0,0-.65-.65h-5.25v-6.22h4.56a.57.57,0,0,0,.65-.65v-4.1a.57.57,0,0,0-.65-.65h-4.56V237h5.25a.57.57,0,0,0,.65-.65v-4.1A.57.57,0,0,0,139.39,231.57Z"/><path class="cls-1" d="M142.52,231.57a.57.57,0,0,0-.65.65v4.1a.57.57,0,0,0,.65.65h2.22v-5.39Z"/></g><polygon class="cls-2" points="97.25 373.33 97.25 421.58 107.2 414.65 107.2 380.21 97.25 373.33"/><polygon class="cls-2" points="192.75 373.33 192.75 421.58 182.8 414.65 182.8 380.21 192.75 373.33"/><polygon class="cls-2" points="180 432 166.81 424.72 156.08 422.85 139.2 417.17 131.89 419.52 134.88 427.93 128.92 423.68 119.95 425.7 110 432 180 432"/><path class="cls-2" d="M284.89,414.36l0-6.13,5,0A84.76,84.76,0,0,0,287,388h-4.77c-.43-1.62-.93-3.26-1.49-4.91h4.7c-.07-.21-.13-.41-.21-.61-2.44-6.57-4.87-13.19-7.23-19.64H273.3L272,359.14h4.66c-2.33-6.41-4.57-12.62-6.66-18.41h-4.71L263.92,337h4.73c-2.31-6.45-4.39-12.29-6.13-17.19l-4.85,0-1.34-3.68,4.89,0-1.31-3.72a12.33,12.33,0,0,0-11.52-8.25H220a14,14,0,0,1,0-28V72.46a20,20,0,0,0-20-20h-4l-5-6H99l-5,6H90a20,20,0,0,0-20,20v7.78H56.35V11.91a6,6,0,1,0-2,0V91.07h5.32v4H54.35v8h5.32v4H54.35v8h5.32v4H54.35v10.2L70,141V276.22a14,14,0,0,1,0,28H41.63a12.33,12.33,0,0,0-11.52,8.25l-1.31,3.72,4.89,0-1.34,3.68-4.85,0c-1.74,4.9-3.82,10.74-6.13,17.19h4.73l-1.34,3.68H20c-2.08,5.79-4.32,12-6.66,18.41H18l-1.34,3.68H12c-2.36,6.46-4.79,13.07-7.23,19.64-.08.21-.13.41-.21.61H9.3c-.56,1.65-1.06,3.28-1.49,4.91H3a84.77,84.77,0,0,0-3,20.24l5,0,0,6.13-5.11,0c.1,6.88.66,12.81.67,17.62H93.55V414.08H89.34V408h4.21V387.73H89.22v-4.9h4.33V362.59H89.22v-3.68h4.33v-7.42L145,385.25l51.45-33.76v7.42h4.33v3.68h-4.33v20.22h4.33v4.9h-4.33V408h4.21v6.14h-4.21V432h92.88c0-4.82.57-10.75.67-17.62ZM214,332.8l-69,45.27L76,332.8V309.3a20,20,0,0,0,0-38.16V72.46a14,14,0,0,1,14-14H200a14,14,0,0,1,14,14V271.14a20,20,0,0,0,0,38.16Z"/><path class="cls-12" d="M200,290.16a20,20,0,0,1,14-19V72.46a14,14,0,0,0-14-14H90a14,14,0,0,0-14,14V271.14a20,20,0,0,1,0,38.16v23.5l69,45.27,69-45.27V309.3A20,20,0,0,1,200,290.16ZM80,72.46a10,10,0,0,1,10-10H200a10,10,0,0,1,10,10V101.6H174.24a30,30,0,0,0-58.48,0H80ZM164.65,360.4l-15.8,10.37L145,373l-3.85-2.22-15.8-10.37V339L145,327.61,164.65,339ZM210,330.64l-43.35,28.44V337.8L145,325.3l-21.65,12.5v21.29L80,330.64V312a24,24,0,0,0,0-43.63V138.6H95.69v-8H80v-14h36.17a30,30,0,0,0,57.66,0H210V268.4A24,24,0,0,0,210,312Z"/><path class="cls-12" d="M76,72.46V271.14a20,20,0,0,1,0,38.16v23.5l68.68,45.06V58.46H90A14,14,0,0,0,76,72.46Z"/><path class="cls-12" d="M145,378.08l69-45.27V309.3a20,20,0,0,1,0-38.16V72.46a14,14,0,0,0-14-14H144.68v319.4Z"/><polygon class="cls-13" points="144.68 46.47 99 46.47 94 52.47 144.68 52.47 144.68 46.47"/><path class="cls-13" d="M70,304.22Z"/><path class="cls-13" d="M76.71,302.51A13.94,13.94,0,0,1,70,304.22h0A13.94,13.94,0,0,0,76.71,302.51Z"/><path class="cls-14" d="M80.83,299.09a14,14,0,0,0,2.09-3.46A14,14,0,0,1,80.83,299.09Z"/><path class="cls-14" d="M70,304.22h0Z"/><path class="cls-13" d="M144.68,377.86,76,332.8V309.3a20,20,0,0,0,0-38.16V72.46a14,14,0,0,1,14-14h54.68v-6H90a20.23,20.23,0,0,0-2,.1,19.87,19.87,0,0,0-7.49,2.31q-.85.46-1.65,1A20,20,0,0,0,70,72.46V276.22a14,14,0,0,1,0,28h0V336l43.47,28.52L144.68,385Z"/></svg>