<?xml version="1.0" encoding="utf-8"?>
<!-- Generator: Adobe Illustrator 21.0.1, SVG Export Plug-In . SVG Version: 6.00 Build 0)  -->
<svg version="1.1" id="Ebene_1" xmlns="http://www.w3.org/2000/svg" xmlns:xlink="http://www.w3.org/1999/xlink" x="0px" y="0px"
	 viewBox="0 0 290 456" style="enable-background:new 0 0 290 456;" xml:space="preserve">
<style type="text/css">
	.st0{fill:#FFFFFF;}
	.st1{fill:#222222;}
	.st2{fill:#1E1E1E;}
	.st3{fill:#FDCA11;}
	.st4{fill:#FAB117;}
	.st5{opacity:0.15;}
	.st6{fill:none;}
	.st7{opacity:0.1;fill:#FFFFFF;}
	.st8{fill:#F26651;}
</style>
<g>
	<path class="st0" d="M200,314.2c0-8.9,5.9-16.5,14-19V96.5c0-7.7-6.3-14-14-14h-55H90c-7.7,0-14,6.3-14,14v198.7
		c8.1,2.5,14,10.1,14,19c0,9-5.9,16.6-14,19.1v23.5l69,45.3l69-45.3v-23.5C205.9,330.7,200,323.1,200,314.2z"/>
	<g>
		<ellipse transform="matrix(1 -3.131008e-03 3.131008e-03 1 -0.9835 0.2207)" class="st1" cx="70" cy="314.2" rx="10" ry="10"/>
		<path class="st1" d="M65,304.2v-6.1c0-3-2.4-5.3-5.4-5.3H22.1c-3,0-5.3,2.5-5.3,5.4V319c0,3,2.4,5.3,5.4,5.3H70v-20.1H65z
			 M58.3,317.6H23.5v-18.1h34.9V317.6z"/>
	</g>
	<g>
		
			<ellipse transform="matrix(3.131008e-03 -1 1 3.131008e-03 -94.9062 533.2339)" class="st1" cx="220" cy="314.2" rx="10" ry="10"/>
		<path class="st1" d="M220,304.2v20.1h47.8c3,0,5.4-2.3,5.4-5.3v-20.8c0-3-2.3-5.4-5.3-5.4h-37.5c-3,0-5.4,2.3-5.4,5.3v6.1H220z
			 M231.7,299.5h34.9v18.1h-34.9V299.5z"/>
	</g>
	<g>
		<path class="st2" d="M145,120.8c2.2,0,4.2,0.6,5.9,1.6c0.2-0.1,0.3-0.2,0.5-0.3c4.1-2.4,8.7-2.6,11.6-2.5
			c-3.9-5.6-10.4-9.2-17.6-9.3c-0.4,0.6-1,1.5-1.6,2.6c-1.2,2.2-2.3,5.2-2.4,8.5C142.5,121,143.7,120.8,145,120.8z"/>
		<path class="st2" d="M128.9,143.1c2.5-0.1,5.7-0.6,8.5-2.2c-2.4-2.1-3.9-5.2-3.9-8.6c0-0.1,0-0.1,0-0.2c-0.2-0.1-0.4-0.2-0.5-0.3
			c-4.1-2.4-6.6-6.2-8-8.8c-1.3,2.8-2,5.9-2,9.2c0,3.9,1,7.5,2.8,10.7C126.6,143.1,127.6,143.1,128.9,143.1z"/>
		<path class="st2" d="M133.7,130.1c0.7-3.4,2.8-6.2,5.7-7.8c0-0.2,0-0.4,0-0.6c0-4.7,2.1-8.9,3.6-11.3c-7.2,0.6-13.4,4.7-16.9,10.6
			c0.3,0.7,0.8,1.7,1.5,2.7C128.9,125.9,131,128.4,133.7,130.1z"/>
		<path class="st2" d="M164.2,121.6c-0.8-0.1-1.9-0.1-3.1-0.1c-2.5,0.1-5.7,0.6-8.5,2.2c2.4,2.1,3.9,5.2,3.9,8.6c0,0.1,0,0.1,0,0.2
			c0.2,0.1,0.4,0.2,0.5,0.3c4.1,2.4,6.6,6.2,8,8.8c1.3-2.8,2-5.9,2-9.2C167,128.4,166,124.8,164.2,121.6z"/>
		<path class="st2" d="M145,143.8c-2.2,0-4.2-0.6-5.9-1.6c-0.2,0.1-0.3,0.2-0.5,0.3c-4.1,2.4-8.7,2.6-11.6,2.5
			c3.9,5.6,10.4,9.2,17.6,9.3c0.4-0.6,1-1.5,1.6-2.6c1.2-2.2,2.3-5.2,2.4-8.5C147.5,143.6,146.3,143.8,145,143.8z"/>
		<path class="st2" d="M156.3,134.5c-0.7,3.4-2.8,6.2-5.7,7.8c0,0.2,0,0.4,0,0.6c0,4.7-2.1,8.9-3.6,11.3c7.2-0.6,13.4-4.7,16.9-10.6
			c-0.3-0.7-0.8-1.7-1.5-2.7C161.1,138.7,159,136.2,156.3,134.5z"/>
	</g>
	<rect x="104.7" y="154.6" class="st3" width="8" height="8"/>
	<polygon class="st4" points="93.5,375.5 145,409.3 93.5,375.5 	"/>
	<polygon class="st4" points="145,409.3 196.5,375.5 196.5,375.5 	"/>
	<polygon class="st1" points="125.3,363 125.3,384.4 141.1,394.8 145,397 148.8,394.8 164.7,384.4 164.7,363 145,351.6 	"/>
	<path class="st1" d="M196,314.1c0-9.7,5.8-18,14-21.7V140.6h-36.2c-3.6,12.5-15.1,21.7-28.8,21.7s-25.2-9.2-28.8-21.7H80v14h15.7v8
		H80v129.8c8.2,3.8,14,12.1,14,21.7c0,9.7-5.7,18.1-14,21.9v18.6l43.3,28.4v-21.3l21.7-12.5l21.7,12.5v21.3l43.3-28.4V336
		C201.7,332.2,196,323.9,196,314.1z"/>
	<path class="st1" d="M145,102.3c14.3,0,26.2,10,29.2,23.3H210V96.5c0-5.5-4.5-10-10-10h-55H90c-5.5,0-10,4.5-10,10v29.1h35.8
		C118.8,112.3,130.7,102.3,145,102.3z"/>
	<polygon class="st0" points="100,327.2 100,328.2 134.6,328.2 145,335.1 155.4,328.2 190,328.2 190,327.2 	"/>
	<rect x="100" y="300.2" class="st0" width="90" height="1"/>
	<g>
		<path class="st0" d="M104.5,318.2h1.4v-7.5h-1.4v-1.1h4.2v1.1h-1.4v7.5h1.5v1.1h-4.4V318.2z M108,314.5L108,314.5l3.5-3.8h-1.3
			v-1.1h4.1v1.1h-1.2l-3.4,3.6l3.3,3.8h1.5v1.1h-2.3L108,314.5z"/>
		<path class="st0" d="M116.1,318.2h1.4v-7.5h-1.4v-1.1h7.9v2.7h-1.3v-1.6H119v3.1h4v1.1h-4v3.2h3.8v-1.6h1.3v2.8h-7.9V318.2z"/>
		<path class="st0" d="M126.2,318.2h1.4v-7.5h-1.4v-1.1h4.3v1.1H129v7.5h1.4v1.1h-4.3V318.2z"/>
		<path class="st0" d="M132.5,318.2h1.4v-7.5h-1.4v-1.1h4.5v1.1h-1.6v7.5h3.8v-1.7h1.3v2.9h-7.9V318.2z"/>
		<path class="st0" d="M142.1,318.2h1.4v-7.5h-1.4v-1.1h4.6c2.1,0,3.6,0.9,3.6,2.5c0,0.9-0.5,1.8-1.9,2.2c1.6,0.3,2.2,1.3,2.2,2.4
			c0,1.6-1.4,2.6-3.7,2.6h-4.9V318.2z M146.6,313.8c1.5,0,2.4-0.6,2.4-1.6c0-1-0.9-1.5-2.2-1.5h-1.8v3.1H146.6z M146.9,318.2
			c1.4,0,2.3-0.6,2.3-1.6c0-1.1-0.9-1.7-2.4-1.7h-2v3.3H146.9z"/>
		<path class="st0" d="M151.9,318.2h1.2l3-7.5h-1.4v-1.1h3.4l3.5,8.6h1.3v1.1h-4.2v-1.1h1.5l-0.8-1.9h-4.2l-0.7,1.9h1.4v1.1h-4.1
			V318.2z M159,315.2l-1.7-4.2l-1.7,4.2H159z"/>
		<path class="st0" d="M163.9,314.5c0-3.1,2-5.1,5.2-5.1c1.4,0,2.8,0.4,3.5,0.8v2.6h-1.4v-1.8c-0.5-0.2-1.3-0.3-2.1-0.3
			c-2.2,0-3.8,1.4-3.8,3.9c0,2.6,1.7,3.9,3.9,3.9c1.3,0,2.5-0.5,3.4-1v1.3c-0.7,0.4-2,0.8-3.5,0.8
			C166,319.5,163.9,317.6,163.9,314.5z"/>
		<path class="st0" d="M174.6,318.2h1.4v-7.5h-1.4v-1.1h4.3v1.1h-1.4v3.1h5.2v-3.1h-1.4v-1.1h4.3v1.1h-1.4v7.5h1.4v1.1h-4.3v-1.1
			h1.4V315h-5.2v3.2h1.4v1.1h-4.3V318.2z"/>
	</g>
	<g>
		<path class="st0" d="M124.8,179.3c0.8,0,1.3,0.4,1.3,1.3v51c0,1.6-0.3,3-0.9,4.4c-0.6,1.4-1.4,2.6-2.4,3.6c-1,1-2.2,1.8-3.6,2.4
			c-1.4,0.6-2.8,0.9-4.4,0.9h-3.4c-1.6,0-3-0.3-4.4-0.9c-1.4-0.6-2.6-1.4-3.6-2.4c-1-1-1.8-2.2-2.4-3.6c-0.6-1.4-0.9-2.8-0.9-4.4
			v-11.4c0-0.8,0.4-1.4,1.2-1.6l8.2-2.2c0.8-0.2,1.2,0.1,1.2,0.9v13.8c0,0.6,0.2,1.1,0.6,1.5c0.4,0.4,0.9,0.6,1.5,0.6h0.7
			c0.6,0,1.1-0.2,1.5-0.6c0.4-0.4,0.6-0.9,0.6-1.5v-50.5c0-0.8,0.4-1.3,1.3-1.3H124.8z"/>
		<path class="st0" d="M157.5,240.9c0.1,0.8-0.2,1.3-1.1,1.3h-8.2c-0.8,0-1.2-0.4-1.3-1.3l-0.7-9.7h-5.6l-0.7,9.7
			c-0.1,0.8-0.6,1.3-1.3,1.3h-8.2c-0.8,0-1.2-0.4-1.1-1.3l6.7-60.4c0.1-0.8,0.6-1.3,1.4-1.3h11.9c0.8,0,1.3,0.4,1.4,1.3L157.5,240.9
			z M145.5,221.2l-1.7-24.4h-0.7l-1.7,24.4H145.5z"/>
		<path class="st0" d="M190,180.5v60.4c0,0.8-0.4,1.3-1.3,1.3H183c-0.4,0-0.7-0.1-1-0.4c-0.3-0.2-0.6-0.5-0.7-0.8l-9.5-29.8v29.7
			c0,0.8-0.4,1.3-1.3,1.3h-8c-0.8,0-1.3-0.4-1.3-1.3v-60.4c0-0.8,0.4-1.3,1.3-1.3h5.9c0.4,0,0.7,0.1,1,0.4c0.3,0.2,0.6,0.5,0.7,0.8
			l9.3,28.9v-28.8c0-0.8,0.4-1.3,1.3-1.3h8C189.6,179.3,190,179.7,190,180.5z"/>
	</g>
	<rect x="79.4" y="125.6" class="st0" width="130.6" height="15"/>
	<circle class="st0" cx="145" cy="132.3" r="30"/>
	<rect x="79.4" y="154.6" class="st0" width="16.3" height="8"/>
	<rect x="100" y="248.7" class="st3" width="90" height="41.2"/>
	<g>
		<g>
			<path class="st1" d="M112.7,255.6c0.8,0,1.6,0.2,2.3,0.5c0.7,0.3,1.3,0.7,1.8,1.2c0.5,0.5,0.9,1.1,1.2,1.8
				c0.3,0.7,0.5,1.5,0.5,2.3v6.1c0,0.8-0.2,1.6-0.5,2.3c-0.3,0.7-0.7,1.3-1.2,1.8c-0.5,0.5-1.1,0.9-1.8,1.2
				c-0.7,0.3-1.5,0.5-2.3,0.5h-2.2v9.3c0,0.4-0.2,0.6-0.6,0.6h-4.1c-0.4,0-0.6-0.2-0.6-0.6v-26.4c0-0.4,0.2-0.6,0.6-0.6H112.7z
				 M113.1,261.6c0-0.3-0.1-0.6-0.3-0.8c-0.2-0.2-0.5-0.3-0.8-0.3h-1.5v7.9h1.5c0.3,0,0.6-0.1,0.8-0.3c0.2-0.2,0.3-0.5,0.3-0.8
				V261.6z"/>
			<path class="st1" d="M125.7,282.6c0,0.4-0.2,0.6-0.6,0.6H121c-0.4,0-0.6-0.2-0.6-0.6v-26.4c0-0.4,0.2-0.6,0.6-0.6h4.1
				c0.4,0,0.6,0.2,0.6,0.6V282.6z"/>
			<path class="st1" d="M140,278.5v4.1c0,0.4-0.2,0.6-0.6,0.6h-10c-0.4,0-0.6-0.2-0.6-0.6v-26.4c0-0.4,0.2-0.6,0.6-0.6h10
				c0.4,0,0.6,0.2,0.6,0.6v4.1c0,0.4-0.2,0.6-0.6,0.6h-5.3v5.3h4.6c0.4,0,0.6,0.2,0.6,0.6v4.1c0,0.4-0.2,0.6-0.6,0.6h-4.6v6.2h5.3
				C139.8,277.8,140,278.1,140,278.5z"/>
			<path class="st1" d="M155.1,256.2v4.1c0,0.4-0.2,0.6-0.6,0.6h-3.3v21.6c0,0.4-0.2,0.6-0.6,0.6h-4.1c-0.2,0-0.3-0.1-0.4-0.2
				c-0.1-0.1-0.2-0.3-0.2-0.5V261h-3.2c-0.4,0-0.6-0.2-0.6-0.6v-4.1c0-0.4,0.2-0.6,0.6-0.6h11.9
				C154.8,255.6,155.1,255.8,155.1,256.2z"/>
			<path class="st1" d="M168.4,278.5v4.1c0,0.4-0.2,0.6-0.6,0.6h-10c-0.4,0-0.6-0.2-0.6-0.6v-26.4c0-0.4,0.2-0.6,0.6-0.6h10
				c0.4,0,0.6,0.2,0.6,0.6v4.1c0,0.4-0.2,0.6-0.6,0.6h-5.3v5.3h4.6c0.4,0,0.6,0.2,0.6,0.6v4.1c0,0.4-0.2,0.6-0.6,0.6h-4.6v6.2h5.3
				C168.2,277.8,168.4,278.1,168.4,278.5z"/>
			<path class="st1" d="M176.6,282.6c0,0.4-0.2,0.6-0.7,0.6h-4.1c-0.4,0-0.6-0.2-0.6-0.6v-26.4c0-0.4,0.2-0.6,0.6-0.6h6.9
				c0.8,0,1.6,0.2,2.3,0.5c0.7,0.3,1.3,0.7,1.8,1.2s0.9,1.1,1.2,1.8c0.3,0.7,0.5,1.5,0.5,2.3v5.7c0,1.1-0.3,2.2-1,3.1
				c-0.7,0.9-1.5,1.6-2.4,2.1l4.4,10.4c0.1,0.4-0.1,0.6-0.5,0.6h-4.2c-0.2,0-0.4-0.1-0.5-0.2c-0.2-0.1-0.3-0.3-0.3-0.5l-3.4-8.5
				V282.6z M176.6,267.9h1.5c0.3,0,0.6-0.1,0.8-0.3c0.2-0.2,0.3-0.5,0.3-0.8v-5.2c0-0.3-0.1-0.6-0.3-0.8c-0.2-0.2-0.5-0.3-0.8-0.3
				h-1.5V267.9z"/>
		</g>
		<g>
			<path class="st1" d="M145,120.8c2.2,0,4.2,0.6,5.9,1.6c0.2-0.1,0.3-0.2,0.5-0.3c4.1-2.4,8.7-2.6,11.6-2.5
				c-3.9-5.6-10.4-9.2-17.6-9.3c-0.4,0.6-1,1.5-1.6,2.6c-1.2,2.2-2.3,5.2-2.4,8.5C142.5,121,143.7,120.8,145,120.8z"/>
			<path class="st1" d="M128.9,143.1c2.5-0.1,5.7-0.6,8.5-2.2c-2.4-2.1-3.9-5.2-3.9-8.6c0-0.1,0-0.1,0-0.2c-0.2-0.1-0.4-0.2-0.5-0.3
				c-4.1-2.4-6.6-6.2-8-8.8c-1.3,2.8-2,5.9-2,9.2c0,3.9,1,7.5,2.8,10.7C126.6,143.1,127.6,143.1,128.9,143.1z"/>
			<path class="st1" d="M133.7,130.1c0.7-3.4,2.8-6.2,5.7-7.8c0-0.2,0-0.4,0-0.6c0-4.7,2.1-8.9,3.6-11.3
				c-7.2,0.6-13.4,4.7-16.9,10.6c0.3,0.7,0.8,1.7,1.5,2.7C128.9,125.9,131,128.4,133.7,130.1z"/>
			<path class="st1" d="M164.2,121.6c-0.8-0.1-1.9-0.1-3.1-0.1c-2.5,0.1-5.7,0.6-8.5,2.2c2.4,2.1,3.9,5.2,3.9,8.6c0,0.1,0,0.1,0,0.2
				c0.2,0.1,0.4,0.2,0.5,0.3c4.1,2.4,6.6,6.2,8,8.8c1.3-2.8,2-5.9,2-9.2C167,128.4,166,124.8,164.2,121.6z"/>
			<path class="st1" d="M145,143.8c-2.2,0-4.2-0.6-5.9-1.6c-0.2,0.1-0.3,0.2-0.5,0.3c-4.1,2.4-8.7,2.6-11.6,2.5
				c3.9,5.6,10.4,9.2,17.6,9.3c0.4-0.6,1-1.5,1.6-2.6c1.2-2.2,2.3-5.2,2.4-8.5C147.5,143.6,146.3,143.8,145,143.8z"/>
			<path class="st1" d="M156.3,134.5c-0.7,3.4-2.8,6.2-5.7,7.8c0,0.2,0,0.4,0,0.6c0,4.7-2.1,8.9-3.6,11.3
				c7.2-0.6,13.4-4.7,16.9-10.6c-0.3-0.7-0.8-1.7-1.5-2.7C161.1,138.7,159,136.2,156.3,134.5z"/>
		</g>
		<rect x="104.7" y="154.6" class="st4" width="8" height="8"/>
		<polygon id="shield-star_5_" class="st3" points="145,378.1 138.8,382.4 141,375.2 135,370.7 142.5,370.5 145,363.4 147.5,370.5 
			155,370.7 149,375.2 151.2,382.4 		"/>
	</g>
	<g class="st5">
		<polygon class="st0" points="97.2,398 97.2,446.3 107.2,441.3 107.2,402.9 		"/>
		<g>
			<path class="st0" d="M70.1,328.2L70.1,328.2C70,328.2,70,328.2,70.1,328.2C70.1,328.2,70.1,328.2,70.1,328.2z"/>
		</g>
		<path class="st0" d="M103.3,239.5c1,1,2.2,1.8,3.6,2.4c1.4,0.6,2.8,0.9,4.4,0.9h3.4c1.6,0,3-0.3,4.4-0.9c1.4-0.6,2.6-1.4,3.6-2.4
			c1-1,1.8-2.2,2.4-3.6c0.6-1.4,0.9-2.8,0.9-4.4v-51c0-0.8-0.4-1.3-1.3-1.3h-8c-0.8,0-1.3,0.4-1.3,1.3v50.5c0,0.6-0.2,1.1-0.6,1.5
			c-0.4,0.4-0.9,0.6-1.5,0.6h-0.7c-0.6,0-1.1-0.2-1.5-0.6c-0.4-0.4-0.6-0.9-0.6-1.5v-13.8c0-0.8-0.4-1.1-1.2-0.9l-8.2,2.2
			c-0.8,0.2-1.2,0.8-1.2,1.6v11.4c0,1.6,0.3,3,0.9,4.4C101.5,237.3,102.3,238.5,103.3,239.5z"/>
		<polygon class="st0" points="108.9,318.2 107.3,318.2 107.3,310.7 108.7,310.7 108.7,309.6 104.5,309.6 104.5,310.7 105.9,310.7 
			105.9,318.2 104.5,318.2 104.5,319.3 108.9,319.3 		"/>
		<polygon class="st0" points="108,314.4 108,314.5 112.2,319.3 114.5,319.3 114.5,318.2 113,318.2 109.7,314.3 113.1,310.7 
			114.3,310.7 114.3,309.6 110.2,309.6 110.2,310.7 111.5,310.7 		"/>
		<rect x="100" y="300.2" class="st0" width="45" height="1"/>
		<rect x="100" y="248.7" class="st0" width="45" height="41.2"/>
		<polygon class="st0" points="100,328.2 134.6,328.2 145,335.1 145,327.2 100,327.2 		"/>
		<path class="st0" d="M136,180.5l-6.7,60.4c-0.1,0.8,0.2,1.3,1.1,1.3h8.2c0.8,0,1.2-0.4,1.3-1.3l0.7-9.7h4.4v-10.1h-3.6l1.7-24.4
			h0.7l1.2,17.4v-34.9h-7.5C136.6,179.3,136.2,179.7,136,180.5z"/>
		<polygon class="st0" points="130.5,318.2 129,318.2 129,310.7 130.5,310.7 130.5,309.6 126.2,309.6 126.2,310.7 127.6,310.7 
			127.6,318.2 126.2,318.2 126.2,319.3 130.5,319.3 		"/>
		<polygon class="st0" points="140.4,316.4 139.1,316.4 139.1,318.2 135.3,318.2 135.3,310.7 137,310.7 137,309.6 132.5,309.6 
			132.5,310.7 133.9,310.7 133.9,318.2 132.5,318.2 132.5,319.3 140.4,319.3 		"/>
		<polygon class="st0" points="124,316.5 122.7,316.5 122.7,318.2 119,318.2 119,315 123,315 123,313.8 119,313.8 119,310.7 
			122.7,310.7 122.7,312.3 124,312.3 124,309.6 116.1,309.6 116.1,310.7 117.5,310.7 117.5,318.2 116.1,318.2 116.1,319.3 
			124,319.3 		"/>
		<rect x="23.5" y="299.5" class="st0" width="34.9" height="18.1"/>
		<path class="st0" d="M76,96.5v198.7c8.1,2.5,14,10.1,14,19c0,9-5.9,16.6-14,19.1v23.5l69,45.3V397l-3.8-2.2l-15.8-10.4V363
			l19.7-11.3v-2.3l-21.7,12.5v21.3L80,354.6V336c8.3-3.8,14-12.2,14-21.9c0-9.7-5.8-18-14-21.7V162.6h15.7v-8H80v-14h36.2
			c3.6,12.5,15.1,21.7,28.8,21.7v-8.5c-0.1,0.2-0.2,0.3-0.3,0.5c-7.3-0.1-13.7-3.8-17.6-9.3c2.9,0.1,7.5-0.2,11.6-2.5
			c0.2-0.1,0.3-0.2,0.5-0.3c1.7,1,3.7,1.6,5.9,1.6v-23c-1.3,0-2.5,0.2-3.7,0.6c0.1-3.2,1.2-6.3,2.4-8.5c0.5-0.9,0.9-1.6,1.3-2.2
			v-8.5c-14.3,0-26.2,10-29.2,23.3H80V96.5c0-5.5,4.5-10,10-10h55v-4H90C82.3,82.5,76,88.7,76,96.5z M143,110.4
			c-1.5,2.4-3.6,6.5-3.6,11.3c0,0.2,0,0.4,0,0.6c-2.9,1.6-5,4.4-5.7,7.8c-2.8-1.7-4.8-4.2-6.1-6.3c-0.7-1.1-1.2-2-1.5-2.7
			C129.6,115.1,135.8,111,143,110.4z M125,123.1c1.3,2.5,3.9,6.4,8,8.8c0.2,0.1,0.4,0.2,0.5,0.3c0,0.1,0,0.1,0,0.2
			c0,3.4,1.5,6.5,3.9,8.6c-2.8,1.6-6,2.1-8.5,2.2c-1.3,0-2.3,0-3.1-0.1c-1.8-3.2-2.8-6.8-2.8-10.7C123,129,123.7,125.9,125,123.1z"
			/>
		<polygon class="st0" points="142.1,310.7 143.5,310.7 143.5,318.2 142.1,318.2 142.1,319.3 145,319.3 145,318.2 144.9,318.2 
			144.9,314.9 145,314.9 145,313.8 144.9,313.8 144.9,310.7 145,310.7 145,309.6 142.1,309.6 		"/>
		<path class="st0" d="M70,324.2C70,324.2,70,324.2,70,324.2c5.6,0,10-4.5,10-10s-4.5-10-10-10c0,0-0.1,0-0.1,0H70V324.2z"/>
		<path class="st0" d="M22.2,324.3H70v-0.1c-5.5,0-10-4.5-10-10c0-5.5,4.4-9.9,9.8-10H65v-6.1c0-3-2.4-5.3-5.4-5.3H22.1
			c-3,0-5.3,2.5-5.3,5.4V319C16.8,322,19.2,324.3,22.2,324.3z M23.5,299.5h34.9v18.1H23.5V299.5z"/>
		<path class="st0" d="M60,314.3c0,5.5,4.5,10,10,10v-20h-0.2C64.4,304.3,60,308.8,60,314.3z"/>
		<polygon class="st0" points="138.8,382.4 141,375.2 135,370.7 142.5,370.5 145,363.4 145,351.6 125.3,363 125.3,384.4 
			141.1,394.8 145,397 145,378.1 		"/>
		<path class="st0" d="M134.6,328.2H100v-1h45v-7.9h-2.9v-1.1h1.4v-7.5h-1.4v-1.1h2.9v-8.3h-45v-1h45V290h-45v-41.2h45v-17.5h-4.4
			l-0.7,9.7c-0.1,0.8-0.6,1.3-1.3,1.3h-8.2c-0.8,0-1.2-0.4-1.1-1.3l6.7-60.4c0.1-0.8,0.6-1.3,1.4-1.3h7.5v-17
			c-13.7,0-25.2-9.2-28.8-21.7H80v14h15.7v8H80v129.8c8.2,3.8,14,12.1,14,21.7c0,9.7-5.7,18.1-14,21.9v18.6l43.3,28.4v-21.3
			l21.7-12.5v-14.2L134.6,328.2z M132.5,318.2h1.4v-7.5h-1.4v-1.1h4.5v1.1h-1.6v7.5h3.8v-1.7h1.3v2.9h-7.9V318.2z M126.2,318.2h1.4
			v-7.5h-1.4v-1.1h4.3v1.1H129v7.5h1.4v1.1h-4.3V318.2z M116.1,318.2h1.4v-7.5h-1.4v-1.1h7.9v2.7h-1.3v-1.6H119v3.1h4v1.1h-4v3.2
			h3.8v-1.6h1.3v2.8h-7.9V318.2z M110.2,309.6h4.1v1.1h-1.2l-3.4,3.6l3.3,3.8h1.5v1.1h-2.3l-4.2-4.8v-0.1l3.5-3.7h-1.3V309.6z
			 M104.5,318.2h1.4v-7.5h-1.4v-1.1h4.2v1.1h-1.4v7.5h1.5v1.1h-4.4V318.2z M104.7,154.6h8v8h-8V154.6z M100,220.1
			c0-0.8,0.4-1.4,1.2-1.6l8.2-2.2c0.8-0.2,1.2,0.1,1.2,0.9v13.8c0,0.6,0.2,1.1,0.6,1.5c0.4,0.4,0.9,0.6,1.5,0.6h0.7
			c0.6,0,1.1-0.2,1.5-0.6c0.4-0.4,0.6-0.9,0.6-1.5v-50.5c0-0.8,0.4-1.3,1.3-1.3h8c0.8,0,1.3,0.4,1.3,1.3v51c0,1.6-0.3,3-0.9,4.4
			c-0.6,1.4-1.4,2.6-2.4,3.6c-1,1-2.2,1.8-3.6,2.4c-1.4,0.6-2.8,0.9-4.4,0.9h-3.4c-1.6,0-3-0.3-4.4-0.9c-1.4-0.6-2.6-1.4-3.6-2.4
			c-1-1-1.8-2.2-2.4-3.6c-0.6-1.4-0.9-2.8-0.9-4.4V220.1z"/>
		<path class="st0" d="M90,86.5c-5.5,0-10,4.5-10,10v29.1h35.8c3-13.3,15-23.3,29.2-23.3V86.5H90z"/>
		<rect x="144.9" y="310.7" class="st0" width="0.1" height="3.1"/>
		<rect x="144.9" y="314.9" class="st0" width="0.1" height="3.3"/>
		<polygon class="st0" points="145,214.2 145,221.2 145.5,221.2 		"/>
		<polygon class="st0" points="143.8,196.8 143.1,196.8 141.4,221.2 145,221.2 145,214.2 		"/>
		<polygon class="st0" points="135,370.7 141,375.2 138.8,382.4 145,378.1 145,363.4 142.5,370.5 		"/>
		<path class="st0" d="M56.4,104.2V29.7c2.8-0.5,5-2.9,5-5.9c0-3.3-2.7-6-6-6s-6,2.7-6,6c0,3,2.2,5.4,5,5.9v74.5v49L70,165v-60.8
			H56.4z"/>
		<path class="st0" d="M143.7,113c-1.2,2.2-2.3,5.2-2.4,8.5c1.2-0.4,2.4-0.6,3.7-0.6v-10C144.6,111.4,144.2,112.1,143.7,113z"/>
		<path class="st0" d="M128.9,143.1c2.5-0.1,5.7-0.6,8.5-2.2c-2.4-2.1-3.9-5.2-3.9-8.6c0-0.1,0-0.1,0-0.2c-0.2-0.1-0.4-0.2-0.5-0.3
			c-4.1-2.4-6.6-6.2-8-8.8c-1.3,2.8-2,5.9-2,9.2c0,3.9,1,7.5,2.8,10.7C126.6,143.1,127.6,143.1,128.9,143.1z"/>
		<path class="st0" d="M133.7,130.1c0.7-3.4,2.8-6.2,5.7-7.8c0-0.2,0-0.4,0-0.6c0-4.7,2.1-8.9,3.6-11.3c-7.2,0.6-13.4,4.7-16.9,10.6
			c0.3,0.7,0.8,1.7,1.5,2.7C128.9,125.9,131,128.4,133.7,130.1z"/>
		<path class="st0" d="M139.1,142.1c-0.2,0.1-0.3,0.2-0.5,0.3c-4.1,2.4-8.7,2.6-11.6,2.5c3.9,5.6,10.4,9.2,17.6,9.3
			c0.1-0.1,0.2-0.3,0.3-0.5v-10C142.8,143.8,140.8,143.2,139.1,142.1z"/>
		<rect x="104.7" y="154.6" class="st0" width="8" height="8"/>
		<path class="st0" d="M112,260.5h-1.5v7.9h1.5c0.3,0,0.6-0.1,0.8-0.3c0.2-0.2,0.3-0.5,0.3-0.8v-5.7c0-0.3-0.1-0.6-0.3-0.8
			C112.6,260.6,112.3,260.5,112,260.5z"/>
		<path class="st0" d="M116.8,257.3c-0.5-0.5-1.1-0.9-1.8-1.2c-0.7-0.3-1.5-0.5-2.3-0.5h-6.9c-0.4,0-0.6,0.2-0.6,0.6v26.4
			c0,0.4,0.2,0.6,0.6,0.6h4.1c0.4,0,0.6-0.2,0.6-0.6v-9.3h2.2c0.8,0,1.6-0.2,2.3-0.5c0.7-0.3,1.3-0.7,1.8-1.2
			c0.5-0.5,0.9-1.1,1.2-1.8c0.3-0.7,0.5-1.5,0.5-2.3v-6.1c0-0.8-0.2-1.6-0.5-2.3C117.7,258.4,117.3,257.8,116.8,257.3z M113.1,267.3
			c0,0.3-0.1,0.6-0.3,0.8c-0.2,0.2-0.5,0.3-0.8,0.3h-1.5v-7.9h1.5c0.3,0,0.6,0.1,0.8,0.3c0.2,0.2,0.3,0.5,0.3,0.8V267.3z"/>
		<path class="st0" d="M125.1,255.6H121c-0.4,0-0.6,0.2-0.6,0.6v26.4c0,0.4,0.2,0.6,0.6,0.6h4.1c0.4,0,0.6-0.2,0.6-0.6v-26.4
			C125.7,255.8,125.5,255.6,125.1,255.6z"/>
		<path class="st0" d="M139.4,255.6h-10c-0.4,0-0.6,0.2-0.6,0.6v26.4c0,0.4,0.2,0.6,0.6,0.6h10c0.4,0,0.6-0.2,0.6-0.6v-4.1
			c0-0.4-0.2-0.6-0.6-0.6h-5.3v-6.2h4.6c0.4,0,0.6-0.2,0.6-0.6v-4.1c0-0.4-0.2-0.6-0.6-0.6h-4.6V261h5.3c0.4,0,0.6-0.2,0.6-0.6v-4.1
			C140,255.8,139.8,255.6,139.4,255.6z"/>
		<path class="st0" d="M142.5,255.6c-0.4,0-0.6,0.2-0.6,0.6v4.1c0,0.4,0.2,0.6,0.6,0.6h2.2v-5.4H142.5z"/>
	</g>
	<g>
		<g>
			<polygon class="st1" points="97.2,397.3 97.2,445.6 107.2,438.6 107.2,404.2 			"/>
			<polygon class="st1" points="192.8,397.3 192.8,445.6 182.8,438.6 182.8,404.2 			"/>
		</g>
		<polygon class="st1" points="180,455.3 166.8,448 156.1,446.1 139.2,440.5 131.9,442.8 134.9,451.2 128.9,447 119.9,449 
			110,455.3 		"/>
	</g>
	<path class="st1" d="M284.9,438.4l0-6.1l5,0c-0.2-6.3-1-13.2-3-20.2l-4.8,0c-0.4-1.6-0.9-3.3-1.5-4.9l4.7,0
		c-0.1-0.2-0.1-0.4-0.2-0.6c-2.4-6.6-4.9-13.2-7.2-19.6l-4.7,0l-1.3-3.7l4.7,0c-2.3-6.4-4.6-12.6-6.7-18.4l-4.7,0l-1.3-3.7l4.7,0
		c-2.3-6.4-4.4-12.3-6.1-17.2l-4.9,0l-1.3-3.7l4.9,0c-0.5-1.3-0.9-2.6-1.3-3.7c-1.7-4.9-6.3-8.2-11.5-8.3H220c0,0,0,0,0,0
		c-7.7,0-14-6.3-14-14c0-7.7,6.3-14,14-14V96.5c0-11-9-20-20-20h-4l-5-6H99l-5,6h-4c-11,0-20,9-20,20v7.8H56.4V29.7
		c2.8-0.5,5-2.9,5-5.9c0-3.3-2.7-6-6-6s-6,2.7-6,6c0,3,2.2,5.4,5,5.9v74.5v10.8h5.3v4h-5.3v8h5.3v4h-5.3v8h5.3v4h-5.3v10.2L70,165
		v135.2c7.7,0,14,6.2,14,14c0,7.7-6.2,14-14,14c0,0,0,0,0,0H41.6c-5.2,0-9.8,3.4-11.5,8.3c-0.4,1.1-0.8,2.4-1.3,3.7l4.9,0l-1.3,3.7
		l-4.9,0c-1.7,4.9-3.8,10.7-6.1,17.2l4.7,0l-1.3,3.7l-4.7,0c-2.1,5.8-4.3,12-6.7,18.4l4.7,0l-1.3,3.7l-4.7,0
		c-2.4,6.5-4.8,13.1-7.2,19.6c-0.1,0.2-0.1,0.4-0.2,0.6l4.7,0c-0.6,1.6-1.1,3.3-1.5,4.9L3,412c-2,7.1-2.8,13.9-3,20.2l5,0l0,6.1
		l-5.1,0c0.1,6.9,0.7,12.8,0.7,17.6h92.9v-17.9l-4.2,0V432h4.2v-20.2h-4.3v-4.9l4.3,0v-20.2h-4.3v-3.7h4.3v-7.4l51.5,33.8l51.5-33.8
		v7.4h4.3v3.7h-4.3v20.2l4.3,0v4.9h-4.3V432h4.2v6.1l-4.2,0V456h92.9c0-4.8,0.6-10.7,0.7-17.6L284.9,438.4z M214,356.8l-69,45.3
		l-69-45.3v-23.5c8.1-2.6,14-10.2,14-19.1c0-8.9-5.9-16.5-14-19V96.5c0-7.7,6.3-14,14-14h55h55c7.7,0,14,6.3,14,14v198.7
		c-8.1,2.5-14,10.1-14,19c0,9,5.9,16.6,14,19.1V356.8z"/>
	<path class="st6" d="M200,314.2c0-8.9,5.9-16.5,14-19V96.5c0-7.7-6.3-14-14-14h-55H90c-7.7,0-14,6.3-14,14v198.7
		c8.1,2.5,14,10.1,14,19c0,9-5.9,16.6-14,19.1v23.5l69,45.3l69-45.3v-23.5C205.9,330.7,200,323.1,200,314.2z M80,96.5
		c0-5.5,4.5-10,10-10h55h55c5.5,0,10,4.5,10,10v29.1h-35.8c-3-13.3-15-23.3-29.2-23.3c-14.3,0-26.2,10-29.2,23.3H80V96.5z
		 M164.7,384.4l-15.8,10.4L145,397l-3.9-2.2l-15.8-10.4V363l19.7-11.3l19.7,11.3V384.4z M210,354.6l-43.3,28.4v-21.3L145,349.3
		l-21.7,12.5v21.3L80,354.6V336c8.3-3.8,14-12.2,14-21.9c0-9.7-5.8-18-14-21.7V162.6h15.7v-8H80v-14h36.2
		c3.6,12.5,15.1,21.7,28.8,21.7c13.7,0,25.2-9.2,28.8-21.7H210v151.8c-8.2,3.8-14,12.1-14,21.7c0,9.7,5.7,18.1,14,21.9V354.6z"/>
	<path class="st6" d="M76,96.5v198.7c8.1,2.5,14,10.1,14,19c0,9-5.9,16.6-14,19.1v23.5l68.7,45.1V82.5H90C82.3,82.5,76,88.7,76,96.5
		z"/>
	<path class="st6" d="M145,402.1l69-45.3v-23.5c-8.1-2.6-14-10.2-14-19.1c0-8.9,5.9-16.5,14-19V96.5c0-7.7-6.3-14-14-14h-55h-0.3
		v319.4L145,402.1z"/>
	<polygon class="st7" points="144.7,70.5 99,70.5 94,76.5 144.7,76.5 	"/>
	<path class="st7" d="M70,328.2L70,328.2C70,328.2,70,328.2,70,328.2C70,328.2,70,328.2,70,328.2z"/>
	<path class="st7" d="M76.7,326.5c-2,1.1-4.3,1.7-6.7,1.7l0,0C72.5,328.2,74.7,327.6,76.7,326.5z"/>
	<path class="st8" d="M80.8,323.1c0.9-1,1.6-2.2,2.1-3.5C82.4,320.9,81.7,322.1,80.8,323.1z"/>
	<path class="st8" d="M70,328.2C70,328.2,70,328.2,70,328.2C70,328.2,70,328.2,70,328.2L70,328.2z"/>
	<path class="st7" d="M144.7,401.9L76,356.8v-23.5c8.1-2.6,14-10.2,14-19.1c0-8.9-5.9-16.5-14-19V96.5c0-7.7,6.3-14,14-14h54.7v-6
		H94h-4c-0.7,0-1.4,0-2,0.1c-1.3,0.1-2.7,0.4-3.9,0.8c-1.3,0.4-2.5,0.9-3.6,1.5c-0.6,0.3-1.1,0.6-1.6,1c-1.1,0.7-2.1,1.5-3,2.4
		c-0.9,0.9-1.7,1.9-2.4,3c-2.2,3.2-3.4,7-3.4,11.2v203.8c7.7,0,14,6.2,14,14c0,1.9-0.4,3.8-1.1,5.5c-0.5,1.3-1.2,2.4-2.1,3.5
		c-1.1,1.4-2.5,2.6-4.1,3.4c-2,1.1-4.3,1.7-6.7,1.7l0,0l0,0c0,0,0,0,0,0c0,0,0,0,0,0V360l43.5,28.5l31.2,20.5V401.9z"/>
</g>
</svg>
